<?xml version="1.0" encoding="UTF-8"?>
<svg id="Layer_2" data-name="Layer 2" xmlns="http://www.w3.org/2000/svg" xmlns:xlink="http://www.w3.org/1999/xlink" viewBox="0 0 1154.16 480.45">
  <defs>
    <style>
      .cls-1 {
        fill: none;
      }

      .cls-2 {
        clip-path: url(#clippath);
      }

      .cls-3 {
        fill: #f95948;
      }

      .cls-4 {
        fill: #e82849;
      }

      .cls-5 {
        fill: #e81840;
      }

      .cls-6 {
        fill: #c10827;
      }

      .cls-7 {
        fill: #d22;
      }

      .cls-8 {
        fill: #161616;
      }

      .cls-9 {
        letter-spacing: -.03em;
      }

      .cls-10 {
        letter-spacing: -.03em;
      }

      .cls-11 {
        letter-spacing: -.01em;
      }

      .cls-12 {
        letter-spacing: -.02em;
      }

      .cls-13 {
        letter-spacing: 0em;
      }

      .cls-14 {
        letter-spacing: -.06em;
      }

      .cls-15 {
        letter-spacing: 0em;
      }

      .cls-16 {
        letter-spacing: 0em;
      }

      .cls-17 {
        letter-spacing: 0em;
      }

      .cls-18 {
        letter-spacing: 0em;
      }

      .cls-19 {
        font-family: UniNeue-Trial-Bold, 'Uni Neue-Trial';
        font-size: 59.55px;
        font-weight: 700;
      }
    </style>
    <clipPath id="clippath">
      <circle class="cls-1" cx="428.73" cy="192.78" r="182.81" transform="translate(-10.75 359.62) rotate(-45)"/>
    </clipPath>
  </defs>
  <g id="Layer_1-2" data-name="Layer 1">
    <g>
      <path class="cls-8" d="m45.83,227.96v140.36c0,3.47-2.81,6.28-6.28,6.28H6.28c-3.47,0-6.28-2.81-6.28-6.28V24.22c0-3.47,2.81-6.28,6.28-6.28h195.66c3.47,0,6.28,2.81,6.28,6.28v31.27c0,3.47-2.81,6.28-6.28,6.28H52.11c-3.47,0-6.28,2.81-6.28,6.28v104.5c0,3.47,2.81,6.28,6.28,6.28h133.89c3.47,0,6.28,2.81,6.28,6.28v30.28c0,3.47-2.81,6.28-6.28,6.28H52.11c-3.47,0-6.28,2.81-6.28,6.28Z"/>
      <path class="cls-8" d="m878.7,279.46c0,31.22-11.46,56.29-34.37,75.22-23.25,18.6-51.48,27.9-84.68,27.9-29.56,0-55.63-8.63-78.21-25.9-20.67-15.8-35.5-36.89-44.48-63.27-1.42-4.16.68-8.71,4.75-10.37l28.4-11.62c4.41-1.8,9.4.46,11.01,4.95,2.64,7.38,5.9,14.22,9.79,20.53,5.31,8.64,11.53,16.03,18.68,22.17,7.14,6.15,15.02,10.96,23.66,14.45,8.63,3.49,17.76,5.23,27.4,5.23,20.92,0,38.02-5.39,51.31-16.19,13.28-10.79,19.93-25.16,19.93-43.09,0-14.94-5.48-27.72-16.44-38.36-10.3-10.29-29.56-20.25-57.78-29.89-28.56-10.29-46.33-17.26-53.3-20.92-37.86-19.26-56.79-47.65-56.79-85.18,0-26.23,10.46-48.65,31.38-67.25,21.25-18.59,47.32-27.9,78.21-27.9,27.23,0,50.81,6.97,70.74,20.92,17.34,11.85,29.65,26.35,36.93,43.48,1.8,4.24-.22,9.14-4.47,10.92l-27.46,11.5c-4.2,1.76-8.99-.19-10.85-4.34-4.44-9.91-11.38-18.39-20.81-25.44-11.79-8.79-26.15-13.2-43.09-13.2-17.93,0-33.05,4.98-45.33,14.94-12.29,9.3-18.43,21.42-18.43,36.36,0,12.29,4.81,22.91,14.45,31.88,10.62,8.97,33.7,19.6,69.24,31.88,36.19,12.29,62.02,27.32,77.46,45.08,15.44,17.77,23.16,39.6,23.16,65.5Z"/>
      <path class="cls-8" d="m1154.16,279.46c0,31.22-11.46,56.29-34.37,75.22-23.25,18.6-51.48,27.9-84.68,27.9-29.56,0-55.63-8.63-78.21-25.9-20.66-15.79-35.47-36.86-44.46-63.21-1.43-4.19.68-8.77,4.78-10.45l28.28-11.57c4.44-1.82,9.47.46,11.09,4.98,2.64,7.35,5.89,14.18,9.77,20.47,5.31,8.64,11.53,16.03,18.68,22.17,7.14,6.15,15.02,10.96,23.66,14.45,8.63,3.49,17.76,5.23,27.4,5.23,20.92,0,38.02-5.39,51.31-16.19,13.28-10.79,19.93-25.16,19.93-43.09,0-14.94-5.48-27.72-16.44-38.36-10.3-10.29-29.56-20.25-57.78-29.89-28.56-10.29-46.33-17.26-53.3-20.92-37.86-19.26-56.79-47.65-56.79-85.18,0-26.23,10.46-48.65,31.38-67.25,21.25-18.59,47.32-27.9,78.21-27.9,27.23,0,50.81,6.97,70.74,20.92,17.32,11.84,29.62,26.31,36.91,43.42,1.82,4.27-.22,9.21-4.5,11l-27.35,11.45c-4.23,1.77-9.05-.2-10.93-4.38-4.44-9.89-11.37-18.35-20.78-25.38-11.79-8.79-26.15-13.2-43.09-13.2-17.93,0-33.05,4.98-45.33,14.94-12.29,9.3-18.43,21.42-18.43,36.36,0,12.29,4.81,22.91,14.45,31.88,10.62,8.97,33.7,19.6,69.24,31.88,36.19,12.29,62.02,27.32,77.46,45.08,15.44,17.77,23.16,39.6,23.16,65.5Z"/>
      <g class="cls-2">
        <path class="cls-4" d="m621.4,28.73c-12.81-3.77-24.14,9.54-30.59,21.41-48.33,88.95-60.71,192.93-62.77,294.14-.51,25.14-.48,50.52-6.08,75.03-44.86-128.24-63.3-265.66-53.86-401.2.42-6.02,1.12-11.97.23-17.89-18.57-4.16-41.92,48.51-48.21,62.09-40.95,88.37-61.34,186.18-59.11,283.55-31.29-95.49-39.38-198.49-23.37-297.69.98-6.1.46-14.62-5.65-15.59-2.05-.33-4.11.45-6,1.31-20.12,9.12-33.99,28.04-44.68,47.36-34.62,62.54-56.69,166.8-19.17,233.12,1.79,3.17,3.58,5.84,6.72,7.61,3.6-20.51-4.06-47.7-4.78-69.12-.8-23.77-.16-47.6,2.66-71.23,3.32-27.76,9.72-55.26,20.01-81.3,7.74-19.59,23.33-63.25,48.85-65.24-37.49,110.14-30.78,234.65,18.33,340.12,7.87,16.89,13.91-4.76,15.62-12.26,3.09-13.61,4.5-27.56,6.21-41.4,6.77-54.8,17.56-109.11,32.2-162.35C423.24,103.69,440.36,51.23,466.95.05c-41.24,130.01-19.91,273.7,33.47,399.22,4.07,9.57,12.83,27.2,25.58,18.73,7.27-4.83,9.47-14.34,11.01-22.93,19.7-109.67,29.35-221.41,58.78-328.88,4.19-15.32,10.88-32.73,26.08-37.31-.16-.05-.31-.1-.47-.15Zm-259.5,352.75s-.02-.04-.04-.06c.34-.04.29.07.04.06Zm0-1.48c0,.39.12.97-.13,1.29-.22-.4-.06-1.12-.16-1.49-.09-1.28-.11-2.59-.11-3.86,0-.07,0-.14,0-.22.03.3.06.6.09.91.11,1.1.24,2.24.31,3.36Z"/>
        <path class="cls-3" d="m642.13,273.55c-65.01,11.24-134.25,4.89-201.12-11.69-36.21-8.98-71.89-20.92-106.95-34.62-13.69-5.35-27.46-10.39-41.1-15.9-16.31-6.6-40.65-13.51-52.56-27.36,8.56-4.85,19.06-5.97,29.25-7.05,107.12-11.25,215.18-27.45,308.33-73.4,21.03-10.37-10.12-23.68-21.32-28.08-55.28-21.72-113.03-35.69-170.76-41.62-28.87-2.96-57.73-3.92-86.29-2.82-14.28.55-28.48,1.61-42.57,3.19-4.52.51-10.24-.31-14.39,1.37-1.28.52-5.47,4.45-7.09,5.73-.32.26-.54.41-.61.41,73.87,2.1,148.12,9.04,222.08,20.76,29.46,4.67,58.9,10.1,88.1,17.17,14.19,3.44,27.35,7.45,39.71,15.81-96.72,36.91-205.69,42.89-307.82,67.06-11.71,2.77-23.63,5.92-32.88,12.94-2.55,1.93-4.96,4.32-5.57,7.49-1.3,6.74,5.71,12.93,11.94,17.16,33.18,22.54,68.86,41.31,105.94,55.73,51.92,20.2,106.38,31.79,160.56,36.57,52.79,4.66,107.09,2.54,152.32-18.99-80.45,53.76-181.68,76.07-283.47,81.5-60,3.2-123.28.32-179.96-26.61-3.19-1.51-6.31-1.85-9.06-.37,1.55,2.36,3.76,3.37,6.29,5.01,1.56,1,3.12,2.03,4.63,3.1,1.92,1.3,3.85,2.6,5.77,3.9,41.6,26.74,89.67,38.54,137.09,41.07,43.91,2.34,87.03-3.16,129.06-11.25,36.78-7.08,73.15-16.24,106.44-31.38,33.28-15.14,63.51-36.54,84.62-65.3-9.47-3.11-19.27-1.16-28.61.45Z"/>
        <path class="cls-7" d="m662.55,98.12c-16.87,2.65-31.24,29.83-43.6,40.6-16.44,14.33-34.01,27.33-52.25,39.28-37.37,24.48-77.45,44.51-118.08,62.94-30.74,13.94-62.03,27.13-94.85,35.01-32.82,7.89-67.44,10.31-100.32,2.67-15.13-3.52-30.17-9.39-41.44-20.08,12.15-4.52,25.53-3.73,38.49-3.55,73.93,1.02,147.02-20.23,213.09-53.41,47.08-23.64,92.3-54.55,121.07-98.69,8.42-12.92,15.47-27.33,16.25-42.74.33-6.59-.67-13.65-4.94-18.69-4.61-5.43-12.26-7.47-19.36-6.94-7.1.54-13.81,3.3-20.35,6.11-81.29,34.92-157.07,82.12-239.74,113.62-20.13,7.67-40.6,14.37-61.18,20.73-7.33,2.26-15.37,2.56-22.53,5.4-12.7,5.04-6.71,10.85,5.39,9.19,118.74-16.26,226.06-77.95,325.99-144.11,4.37-2.9,8.87-5.86,13.99-7,5.12-1.14,11.09-.05,14.38,4.03,3.05,3.78,3.16,9.12,2.49,13.93-2.24,15.98-11.4,30.13-21.55,42.68-31.52,38.95-74.26,67.51-119.28,89.51-58.53,28.59-122,47.03-186.74,54.22-17.18,1.91-34.92,3.16-50.43,10.8-1.86.92-3.78,2.02-4.76,3.84-2.22,4.13,1.45,8.93,5.11,11.86,9.21,7.38,20.1,12.42,31.28,16.2,34.04,11.52,71.16,11.77,106.53,5.39,35.37-6.37,69.26-19.13,102.32-33.22,40.17-17.12,79.66-36.44,115.31-61.67,18.53-13.12,35.98-27.85,51.58-44.37,12.78-13.52,34.66-34.61,38.13-53.55Z"/>
        <path class="cls-5" d="m644.48,182.04s-.04-.01-.06-.02c-1.41-.42-2.92.09-4.32.53-10.87,3.44-22.54,3.12-33.93,2.51-62.52-3.34-124.27-14.32-186.14-23.29-31.5-4.57-63.09-8.65-94.85-10.92-15.8-1.13-31.64-1.82-47.48-1.89-14.66-.06-32.03,3.5-46.2,1.12,14.35-10.86,39.52-11.93,56.75-16.08,20.07-4.82,40.29-9.04,60.61-12.63,40.65-7.19,81.74-11.9,122.97-14.07,43.41-2.29,95.22,2.53,135.68-15.44,2.5-1.14,4.98-2.33,7.38-3.7,2.04-1.15,4.09-2.36,6.04-3.67,1.44-.99,17.84-15.19,15.52-15.85-27.62-7.81-51.99-24.06-78.36-35.41-57-24.53-121.35-25.34-183.16-19.76-31.58,2.86-63.29,7.34-93.13,18.07-15.21,5.47-30.48,13.04-40.04,26.07-.05.07-.1.14-.16.21,36.83-15.43,77.1-20.35,116.85-24.18,62.27-6,126.37-9.54,186.21,8.69,30.41,9.26,59.46,24.08,91.05,27.63-43.32,24.52-96.51,18.44-146.28,17.49-2.44-.05-4.89-.08-7.33-.1-61.02-.46-121.95,7.98-180.95,23.36-31.91,8.32-63.05,19.34-93.64,31.61-29.96,12.01-61.22,22.16-89.9,37.14,9.85,3.31,20.57.77,30.74-1.38,58.45-12.34,119.01-10.69,178.42-4.4,59.41,6.29,118.27,17.16,177.71,23.16,24.33,2.46,48.81,4.08,73.28,3.41,12.18-.33,24.35-1.22,36.42-2.88,7.92-1.09,25.51-1.23,31.39-7.63,2.1-2.28,1.84-6.8-1.1-7.72Z"/>
        <path class="cls-3" d="m532.48,343.35c33.64-20.25,79.28-126.37,67.69-214.04-11.59-87.68,85.92,4.3,68.86,79.67-17.06,75.38-108.37,158.94-108.37,158.94l-28.18-24.57Z"/>
        <path class="cls-6" d="m365.42,370.68c-14.36-7.88-139.3-114.76-104.29-241.26,35.01-126.5-52.85-56.12-65.59-39.96-12.74,16.16-66.65,108.28-58.88,145.89,7.76,37.61,128.12,155.87,141.13,162.49,13.01,6.62,87.63-27.17,87.63-27.17Z"/>
      </g>
    </g>
    <text class="cls-19" transform="translate(0 466.87)"><tspan x="0" y="0">IN</tspan><tspan class="cls-16" x="58.95" y="0">F</tspan><tspan x="92.12" y="0">ORM</tspan><tspan class="cls-14" x="221.63" y="0">A</tspan><tspan x="256.22" y="0">TICS IN</tspan><tspan class="cls-13" x="451.35" y="0">S</tspan><tspan x="487.73" y="0">TITUTE O</tspan><tspan class="cls-12" x="737.4" y="0">F</tspan><tspan class="cls-10" x="769.62" y="0"> </tspan><tspan x="780.63" y="0">T</tspan><tspan class="cls-15" x="814.99" y="0">E</tspan><tspan x="849.41" y="0">CHNO</tspan><tspan class="cls-11" x="1007.98" y="0">L</tspan><tspan class="cls-18" x="1038.46" y="0">O</tspan><tspan class="cls-17" x="1078.84" y="0">G</tspan><tspan class="cls-9" x="1117.3" y="0">Y</tspan></text>
  </g>
</svg>