<?xml version="1.0" encoding="UTF-8"?>
<svg id="Layer_2" data-name="Layer 2" xmlns="http://www.w3.org/2000/svg" xmlns:xlink="http://www.w3.org/1999/xlink" viewBox="0 0 3398.42 3398.42">
  <defs>
    <style>
      .cls-1 {
        fill: none;
      }

      .cls-2 {
        clip-path: url(#clippath);
      }

      .cls-3 {
        fill: #fb0043;
      }

      .cls-4 {
        fill: #fc0038;
      }

      .cls-5 {
        fill: #f00007;
      }

      .cls-6 {
        fill: #ff483c;
      }

      .cls-7 {
        fill: #d2001c;
      }
    </style>
    <clipPath id="clippath">
      <circle class="cls-1" cx="1699.21" cy="1699.21" r="1698.75" transform="translate(-703.84 1699.21) rotate(-45)"/>
    </clipPath>
  </defs>
  <g id="Layer_1-2" data-name="Layer 1">
    <g class="cls-2">
      <path class="cls-3" d="m3489.6,174.8c-119.03-34.99-224.33,88.67-284.25,198.97-449.14,826.59-564.1,1792.75-583.31,2733.29-4.77,233.56-4.42,469.47-56.52,697.21-416.81-1191.7-588.23-2468.61-500.48-3728.04,3.9-55.9,10.43-111.26,2.15-166.26-172.52-38.63-389.5,450.81-447.95,576.93-380.52,821.12-570,1730.05-549.26,2634.81-290.75-887.31-365.9-1844.42-217.19-2766.23,9.14-56.71,4.24-135.84-52.49-144.86-19.09-3.04-38.2,4.22-55.8,12.19-186.94,84.79-315.8,260.55-415.22,440.12C7.54,1244.06-197.53,2212.92,151.18,2829.19c16.68,29.48,33.25,54.27,62.47,70.73,33.45-190.58-37.72-443.23-44.4-642.31-7.42-220.84-1.5-442.34,24.74-661.86,30.84-257.98,90.29-513.54,185.9-755.43,71.96-182.05,216.77-587.78,453.94-606.24-348.36,1023.46-286.04,2180.42,170.29,3160.55,73.11,156.93,129.27-44.2,145.1-113.93,28.74-126.51,41.84-256.1,57.73-384.67,62.95-509.25,163.18-1013.86,299.26-1508.61,141.95-516.1,301.03-1003.56,548.12-1479.18-383.24,1208.14-185.01,2543.33,311,3709.72,37.81,88.91,119.18,252.74,237.74,174.05,67.59-44.84,88-133.23,102.34-213.06,183.1-1019.09,272.75-2057.45,546.17-3056.1,38.96-142.32,101.06-304.16,242.35-346.71-1.45-.47-2.9-.92-4.35-1.35ZM1078.21,3452.68c-.19-.13-.21-.4-.37-.55,3.2-.41,2.67.67.37.55Zm.01-13.79c.01,3.6,1.09,9.02-1.19,12.02-2.08-3.69-.53-10.44-1.44-13.81-.86-11.89-1.02-24.04-1.05-35.85-.02-.68-.03-1.34-.04-2.01.31,2.81.51,5.58.83,8.41,1.04,10.25,2.21,20.85,2.9,31.23Z"/>
      <path class="cls-6" d="m3682.19,2449.71c-604.12,104.41-1247.47,45.43-1868.86-108.67-336.49-83.44-668-194.43-993.83-321.73-127.18-49.68-255.2-96.51-381.89-147.77-151.54-61.31-377.76-125.55-488.39-254.24,79.5-45.08,177.13-55.52,271.84-65.47,995.43-104.55,1999.55-255.11,2865.11-682.06,195.4-96.38-94.03-220-198.1-260.88-513.69-201.8-1050.29-331.65-1586.73-386.72-268.24-27.54-536.48-36.4-801.88-26.21-132.69,5.1-264.66,14.95-395.56,29.6-41.98,4.71-95.16-2.84-133.71,12.73-11.86,4.79-50.87,41.32-65.9,53.28-2.99,2.4-5.04,3.81-5.71,3.78,686.4,19.5,1376.37,84,2063.66,192.94,273.77,43.39,547.28,93.86,818.65,159.58,131.87,31.93,254.15,69.21,369.03,146.93-898.77,342.98-1911.33,398.59-2860.34,623.16-108.81,25.74-219.62,55.03-305.51,120.28-23.65,17.98-46.07,40.15-51.74,69.63-12.05,62.66,53.05,120.12,110.99,159.47,308.29,209.42,639.87,383.85,984.42,517.87,482.5,187.67,988.54,295.4,1491.93,339.84,490.53,43.31,995.15,23.63,1415.43-176.48-747.58,499.52-1688.24,706.85-2634.14,757.32-557.53,29.74-1145.6,2.93-1672.28-247.23-29.61-14.06-58.6-17.22-84.22-3.43,14.43,21.97,34.93,31.31,58.46,46.52,14.48,9.27,29.03,18.91,43.03,28.8,17.88,12.08,35.76,24.17,53.66,36.25,386.58,248.48,833.25,358.09,1273.84,381.63,408,21.79,808.75-29.33,1199.27-104.55,341.77-65.83,679.76-150.88,989.03-291.59,309.27-140.71,590.19-339.58,786.31-606.79-87.97-28.86-179.02-10.81-265.89,4.2Z"/>
      <path class="cls-5" d="m3871.92,819.54c-156.76,24.65-290.31,277.15-405.17,377.25-152.78,133.14-316.06,253.95-485.52,364.97-347.23,227.48-719.73,413.63-1097.28,584.84-285.66,129.55-576.4,252.1-881.38,325.37-304.99,73.27-626.67,95.83-932.18,24.78-140.59-32.69-280.33-87.26-385.06-186.59,112.93-42.02,237.19-34.62,357.67-32.96,686.96,9.47,1366.12-188.02,1980.09-496.32,437.5-219.69,857.66-506.93,1125.03-917.04,78.27-120.04,143.75-254,151-397.13,3.1-61.26-6.25-126.87-45.95-173.64-42.8-50.42-113.95-69.44-179.9-64.47-65.94,4.97-128.35,30.66-189.12,56.76-755.36,324.45-1459.55,763.08-2227.77,1055.78-187.02,71.26-377.28,133.57-568.49,192.62-68.12,21.02-142.86,23.79-209.34,50.2-117.98,46.86-62.36,100.79,50.04,85.41,1103.37-151.08,2100.62-724.38,3029.23-1339.15,40.65-26.92,82.45-54.46,130.04-65.01,47.59-10.55,103.04-.44,133.65,37.49,28.32,35.1,29.38,84.74,23.12,129.4-20.83,148.51-105.95,280-200.28,396.58-292.91,361.98-690.01,627.35-1108.4,831.74-543.86,265.7-1133.7,436.98-1735.29,503.87-159.63,17.76-324.46,29.4-468.58,100.31-17.29,8.51-35.1,18.73-44.24,35.69-20.68,38.34,13.46,82.94,47.47,110.18,85.6,68.57,186.8,115.37,290.69,150.52,316.34,107.01,661.28,109.33,989.95,50.11,328.66-59.2,643.63-177.73,950.83-308.68,373.31-159.13,740.25-338.6,1071.47-573.07,172.22-121.9,334.32-258.81,479.32-412.26,118.76-125.67,322.09-321.57,354.36-497.57Z"/>
      <path class="cls-4" d="m3704.05,1599.4c-.18-.05-.34-.1-.52-.16-13.14-3.89-27.09.84-40.16,4.97-101.05,31.94-209.45,28.96-315.27,23.31-580.99-31.08-1154.71-133.09-1729.66-216.44-292.68-42.43-586.26-80.39-881.35-101.47-146.84-10.49-294.01-16.88-441.24-17.52-136.18-.59-297.59,32.5-429.31,10.37C-.11,1201.5,233.77,1191.55,393.84,1153.07c186.5-44.83,374.36-83.97,563.23-117.36,377.76-66.77,759.59-110.54,1142.67-130.78,403.35-21.32,884.83,23.46,1260.79-143.5,23.23-10.59,46.28-21.66,68.57-34.37,18.96-10.73,37.97-21.93,56.15-34.08,13.43-9.16,165.73-141.19,144.24-147.27-256.66-72.54-483.14-223.58-728.13-329.02C2371.67-11.27,1773.7-18.82,1199.38,33.11c-293.47,26.54-588.12,68.22-865.41,167.91C192.6,251.84,50.76,322.22-38.09,443.23c-.49.66-.97,1.32-1.45,1.98,342.25-143.34,716.44-189.09,1085.78-224.7,578.6-55.8,1174.29-88.66,1730.33,80.76,282.55,86.09,552.51,223.79,846.04,256.71-402.54,227.85-896.82,171.38-1359.28,162.55-22.7-.44-45.39-.73-68.09-.91-567.03-4.24-1133.16,74.11-1681.42,217.11-296.54,77.35-585.85,179.71-870.12,293.69-278.35,111.6-568.85,205.96-835.37,345.1,91.5,30.77,191.16,7.14,285.61-12.8,543.16-114.65,1105.93-99.35,1657.96-40.87,552.05,58.49,1099,159.5,1651.32,215.23,226.13,22.81,453.58,37.93,680.94,31.71,113.16-3.09,226.24-11.35,338.42-26.73,73.61-10.09,237-11.39,291.7-70.89,19.49-21.2,17.06-63.15-10.22-71.78Z"/>
      <path class="cls-6" d="m2663.24,3098.36c312.55-188.16,736.71-1174.24,629.04-1988.97-107.67-814.75,798.39,39.92,639.85,740.37-158.53,700.45-1007.02,1476.89-1007.02,1476.89l-261.86-228.29Z"/>
      <path class="cls-7" d="m1110.88,3352.29c-133.44-73.27-1294.42-1066.39-969.06-2241.83C467.17-64.99-349.27,588.96-467.71,739.13c-118.43,150.16-619.29,1006.21-547.14,1355.69,72.15,349.48,1190.49,1448.36,1311.42,1509.9,120.92,61.54,814.31-252.43,814.31-252.43Z"/>
    </g>
  </g>
</svg>