<?xml version="1.0" encoding="UTF-8"?>
<svg id="Layer_2" data-name="Layer 2" xmlns="http://www.w3.org/2000/svg" xmlns:xlink="http://www.w3.org/1999/xlink" viewBox="0 0 1379.1 1379.1">
  <defs>
    <style>
      .cls-1 {
        fill: none;
      }

      .cls-2 {
        clip-path: url(#clippath);
      }

      .cls-3, .cls-4 {
        fill: #f95948;
      }

      .cls-5 {
        fill: #8800c7;
      }

      .cls-6 {
        fill: #9233c4;
      }

      .cls-4, .cls-7, .cls-8, .cls-9 {
        opacity: .55;
      }

      .cls-7 {
        fill: #d22;
      }

      .cls-8 {
        fill: #e81840;
      }

      .cls-9 {
        fill: #e82849;
      }

      .cls-10 {
        fill: #c10827;
        opacity: .81;
      }
    </style>
    <clipPath id="clippath">
      <circle class="cls-1" cx="689.55" cy="689.55" r="689.36" transform="translate(-285.62 689.55) rotate(-45)"/>
    </clipPath>
  </defs>
  <g id="Layer_1-2" data-name="Layer 1">
    <g class="cls-2">
      <path class="cls-9" d="m1416.1,70.93c-48.3-14.2-91.03,35.98-115.35,80.74-182.27,335.43-228.91,727.51-236.71,1109.19-1.94,94.78-1.79,190.51-22.94,282.93-169.14-483.6-238.71-1001.78-203.1-1512.86,1.58-22.68,4.23-45.15.87-67.47-70.01-15.68-158.06,182.94-181.78,234.12-154.42,333.22-231.31,702.06-222.89,1069.22-117.99-360.07-148.48-748.48-88.14-1122.55,3.71-23.01,1.72-55.13-21.3-58.79-7.74-1.23-15.5,1.71-22.64,4.95-75.86,34.41-128.15,105.73-168.5,178.6C3.06,504.85-80.16,898.02,61.35,1148.1c6.77,11.97,13.49,22.02,25.35,28.7,13.57-77.34-15.31-179.87-18.02-260.65-3.01-89.62-.61-179.51,10.04-268.59,12.51-104.69,36.64-208.4,75.44-306.56,29.2-73.88,87.97-238.53,184.21-246.02-141.37,415.33-116.08,884.83,69.1,1282.57,29.67,63.68,52.46-17.94,58.88-46.23,11.66-51.34,16.98-103.93,23.43-156.1,25.55-206.66,66.22-411.43,121.44-612.2,57.61-209.44,122.16-407.25,222.43-600.26-155.52,490.27-75.08,1032.1,126.21,1505.43,15.34,36.08,48.36,102.56,96.48,70.63,27.43-18.2,35.71-54.07,41.53-86.46,74.31-413.55,110.68-834.93,221.64-1240.18,15.81-57.76,41.01-123.43,98.35-140.7-.59-.19-1.18-.37-1.76-.55ZM437.55,1401.12c-.08-.05-.09-.16-.15-.23,1.3-.17,1.08.27.15.23Zm0-5.6c0,1.46.44,3.66-.48,4.88-.84-1.5-.22-4.24-.58-5.6-.35-4.83-.42-9.76-.43-14.55,0-.27-.01-.55-.02-.82.12,1.14.21,2.26.34,3.41.42,4.16.9,8.46,1.18,12.67Z"/>
      <path class="cls-4" d="m1494.26,994.11c-245.16,42.37-506.23,18.44-758.4-44.1-136.55-33.86-271.08-78.9-403.3-130.56-51.61-20.16-103.56-39.17-154.97-59.97-61.5-24.88-153.3-50.95-198.19-103.17,32.26-18.29,71.88-22.53,110.31-26.57,403.95-42.43,811.43-103.52,1162.68-276.78,79.29-39.11-38.16-89.28-80.39-105.87-208.46-81.89-426.22-134.59-643.9-156.94-108.86-11.18-217.71-14.77-325.41-10.64-53.85,2.07-107.4,6.06-160.52,12.01-17.04,1.91-38.62-1.15-54.26,5.17-4.81,1.94-20.64,16.77-26.74,21.62-1.22.97-2.05,1.55-2.32,1.54,278.54,7.91,558.54,34.09,837.45,78.3,111.1,17.61,222.09,38.09,332.22,64.76,53.51,12.96,103.14,28.09,149.75,59.63-364.73,139.18-775.63,161.75-1160.74,252.88-44.15,10.45-89.12,22.33-123.98,48.81-9.6,7.3-18.69,16.29-21,28.26-4.89,25.43,21.53,48.75,45.04,64.72,125.11,84.98,259.66,155.77,399.48,210.15,195.8,76.16,401.16,119.88,605.44,137.91,199.06,17.57,403.84,9.59,574.39-71.62-303.37,202.71-685.1,286.85-1068.95,307.33-226.25,12.07-464.89,1.19-678.62-100.33-12.02-5.71-23.78-6.99-34.18-1.39,5.85,8.91,14.18,12.7,23.72,18.88,5.88,3.76,11.78,7.67,17.46,11.69,7.26,4.9,14.51,9.81,21.77,14.71,156.87,100.83,338.14,145.31,516.93,154.87,165.57,8.84,328.2-11.9,486.67-42.43,138.69-26.71,275.85-61.23,401.36-118.33,125.5-57.1,239.5-137.8,319.09-246.24-35.7-11.71-72.65-4.38-107.9,1.71Z"/>
      <path class="cls-7" d="m1571.25,332.58c-63.61,10-117.81,112.47-164.42,153.09-62,54.03-128.26,103.05-197.03,148.11-140.91,92.31-292.07,167.86-445.28,237.33-115.92,52.57-233.91,102.3-357.67,132.04-123.77,29.73-254.31,38.89-378.29,10.06-57.05-13.27-113.76-35.41-156.26-75.72,45.83-17.05,96.25-14.05,145.14-13.38,278.77,3.84,554.38-76.3,803.53-201.41,177.54-89.15,348.04-205.72,456.55-372.14,31.76-48.71,58.33-103.07,61.28-161.16,1.26-24.86-2.53-51.49-18.65-70.46-17.37-20.46-46.24-28.18-73.01-26.16-26.76,2.02-52.08,12.44-76.75,23.03-306.53,131.67-592.29,309.66-904.04,428.44-75.89,28.92-153.1,54.2-230.7,78.17-27.64,8.53-57.97,9.65-84.95,20.37-47.88,19.02-25.31,40.9,20.31,34.66,447.76-61.31,852.44-293.96,1229.28-543.43,16.5-10.92,33.46-22.1,52.77-26.38,19.31-4.28,41.81-.18,54.24,15.21,11.49,14.24,11.92,34.39,9.38,52.51-8.45,60.27-43,113.63-81.28,160.94-118.87,146.89-280.01,254.58-449.8,337.53-220.7,107.82-460.06,177.33-704.19,204.47-64.78,7.21-131.67,11.93-190.15,40.71-7.01,3.45-14.24,7.6-17.95,14.48-8.39,15.56,5.46,33.66,19.26,44.71,34.74,27.82,75.8,46.82,117.96,61.08,128.37,43.43,268.35,44.37,401.73,20.34,133.37-24.02,261.19-72.12,385.85-125.27,151.49-64.57,300.4-137.4,434.81-232.55,69.89-49.47,135.67-105.03,194.51-167.3,48.19-51,130.7-130.5,143.8-201.92Z"/>
      <path class="cls-8" d="m1503.13,649.05c-.07-.02-.14-.04-.21-.07-5.33-1.58-10.99.34-16.3,2.02-41.01,12.96-85,11.75-127.94,9.46-235.77-12.61-468.59-54.01-701.91-87.83-118.77-17.22-237.91-32.62-357.66-41.18-59.59-4.26-119.31-6.85-179.06-7.11-55.26-.24-120.76,13.19-174.22,4.21C-.04,487.58,94.87,483.54,159.82,467.92c75.68-18.19,151.92-34.07,228.56-47.63,153.3-27.1,308.25-44.86,463.7-53.07,163.68-8.65,359.07,9.52,511.64-58.23,9.43-4.3,18.78-8.79,27.83-13.95,7.69-4.36,15.41-8.9,22.79-13.83,5.45-3.72,67.25-57.29,58.53-59.76-104.16-29.44-196.06-90.73-295.48-133.52C962.44-4.57,719.78-7.64,486.72,13.44c-119.09,10.77-238.66,27.68-351.19,68.14-57.37,20.62-114.93,49.18-150.98,98.29-.2.27-.39.54-.59.81,138.89-58.17,290.74-76.73,440.62-91.18,234.8-22.64,476.53-35.98,702.18,32.77,114.66,34.94,224.21,90.82,343.33,104.18-163.35,92.46-363.93,69.55-551.61,65.97-9.21-.18-18.42-.3-27.63-.37-230.11-1.72-459.84,30.08-682.33,88.1-120.34,31.39-237.74,72.93-353.1,119.18-112.96,45.29-230.84,83.58-339,140.04,37.13,12.49,77.57,2.9,115.9-5.19,220.42-46.53,448.79-40.32,672.81-16.59,224.03,23.73,445.98,64.73,670.11,87.34,91.76,9.26,184.06,15.39,276.33,12.87,45.92-1.25,91.81-4.6,137.33-10.85,29.87-4.09,96.18-4.62,118.37-28.77,7.91-8.6,6.92-25.63-4.15-29.13Z"/>
      <path class="cls-4" d="m1080.76,1257.33c126.84-76.36,298.96-476.51,255.27-807.14-43.69-330.63,323.99,16.2,259.65,300.45-64.33,284.25-408.66,599.33-408.66,599.33l-106.27-92.64Z"/>
      <path class="cls-10" d="m450.8,1360.38c-54.15-29.73-525.29-432.75-393.25-909.75C189.58-26.37-141.74,239-189.8,299.94c-48.06,60.94-251.31,408.33-222.03,550.15,29.28,141.82,483.11,587.75,532.18,612.73,49.07,24.98,330.45-102.44,330.45-102.44Z"/>
      <g>
        <path class="cls-5" d="m1419.12,70.55c-39.82,11.99-64.14,47.36-80.55,87.18-2.34-14.22-7.32-27.72-16.37-38.73,24.66-33.15,58.3-59.84,95.18-48.98.57.15,1.17.34,1.73.53Z"/>
        <path class="cls-5" d="m1319.19,156.04c-5.24-2.64-10.45-5.32-15.69-7.96,3.2-5.77,6.75-11.61,10.56-17.35,3.58,7.73,5.01,16.44,5.13,25.3Z"/>
        <path class="cls-5" d="m1315.68,187.64c-7.43,36.05-23.87,69.54-44.35,100.72-4.41.6-8.79,1.13-13.2,1.62-3.02-2.34-6.26-4.64-9.65-6.9-2.15-2.98-4.3-5.92-6.52-8.82,14.1-32.58,29.3-64.71,45.7-96.38,9.31,3.32,18.67,6.6,28.02,9.77Z"/>
        <path class="cls-5" d="m1289.4,334.33c-.72,2.87-1.4,5.77-2.07,8.64-.64-1.21-1.32-2.38-2-3.54,1.02-1.62,2-3.21,2.98-4.83.38-.11.72-.19,1.09-.26Z"/>
        <path class="cls-5" d="m1125.25,1297.45c-8.26,51.44-16.89,102.79-26.1,154-5.84,32.39-14.1,68.25-41.56,86.43-48.12,31.94-81.11-34.54-96.46-70.63-16.44-38.69-32.09-77.83-46.87-117.39,20.93-4.22,41.78-8.67,62.56-13.35,19.83,69.39,41.71,138.2,65.54,206.34,17.08-74.51,20.25-151.25,21.87-227.88,20.48-5.51,40.84-11.35,61.01-17.53Z"/>
        <path class="cls-5" d="m840.92,7.24c-6.41-.57-12.82-1.06-19.23-1.47,4.19-14.67,8.6-29.34,13.24-43.93-7.5,14.4-14.78,28.85-21.83,43.33-14.71-.94-29.45-1.7-44.23-2.23,23.76-27.87,48.46-45.51,71.27-40.39,2.23,14.82,1.81,29.68.79,44.69Z"/>
        <path class="cls-6" d="m317.19,531.77v1.24c-15.08,2.83-30.13,5.69-45.18,8.64,9.5-3.66,19.01-7.35,28.47-11.12,5.58.41,11.16.83,16.7,1.24Z"/>
        <path class="cls-6" d="m1258.14,289.98c-1.47.19-2.9.34-4.37.49-1.73-2.49-3.51-4.94-5.28-7.39,3.39,2.26,6.64,4.56,9.65,6.9Z"/>
        <path class="cls-6" d="m465.31,1340.02c-5.02,19.31-14.25,47.93-26.36,57.24,0-.9-.11-1.89-.11-2.68-.3-4.19-.75-8.48-1.21-12.67-.11-1.13-.19-2.26-.3-3.39v.79c0,4.79.08,9.73.41,14.56.26.98,0,2.68.19,4.15-1.4.94-2.79,1.62-4.26,1.92-2.07,0-4.15-.08-6.22-.19-5.62-1.89-11.65-8.45-18.02-21.68,25.98-11.09,42.65-18.63,42.65-18.63-9.95-5.47-34.05-23.61-65.95-52.53,25.68,12.71,52.11,23.76,79.19,33.11Z"/>
        <path class="cls-3" d="m386,1306.84c-2-.9-3.96-1.89-5.92-2.87.94,0,1.89.04,2.79,0,1.06.94,2.11,1.92,3.13,2.87Z"/>
        <path class="cls-6" d="m976.83,1336.52c-20.78,4.68-41.63,9.13-62.56,13.35-1.02-2.71-2.04-5.39-3.02-8.11,6.33-2.11,12.63-4.34,18.93-6.67,14.1-5.2,27.9-10.86,41.44-16.89,1.73,6.11,3.43,12.22,5.2,18.33Z"/>
        <path class="cls-6" d="m1125.74,1294.51c-.19.98-.34,1.96-.49,2.94-20.17,6.18-40.54,12.03-61.01,17.53.34-15.76.6-31.56.9-47.29,5.7-3.7,11.31-7.47,16.89-11.27l43.7,38.09Z"/>
        <path class="cls-3" d="m1101.38,1242.58c-6.52,5.39-13.01,10.03-19.34,13.84,6.56-4.53,13.01-9.13,19.34-13.84Z"/>
        <path class="cls-6" d="m1288.3,334.59c-.98,1.62-1.96,3.21-2.98,4.83-.68-1.17-1.4-2.34-2.11-3.51,1.7-.45,3.39-.87,5.09-1.32Z"/>
        <path class="cls-6" d="m1326.58,191.33c-2.07,6.67-4,13.35-5.81,19.91-6.6,24.1-12.93,48.27-19.01,72.48-10.11,1.77-20.25,3.32-30.43,4.64,20.48-31.18,36.92-64.67,44.35-100.72,3.62,1.28,7.24,2.49,10.9,3.7Z"/>
        <path class="cls-6" d="m1338.57,157.74c-.94,2.22-1.85,4.45-2.68,6.67-5.58-2.75-11.12-5.54-16.7-8.37-.11-8.86-1.55-17.57-5.13-25.3,2.56-3.96,5.32-7.88,8.14-11.73,9.05,11.01,14.03,24.51,16.37,38.73Z"/>
        <path class="cls-6" d="m840.92,7.24c-.15,2.79-.38,5.62-.57,8.41-6.75-1.55-13.54-2.94-20.33-4.22.57-1.89,1.09-3.77,1.66-5.66,6.41.42,12.82.9,19.23,1.47Z"/>
        <path class="cls-5" d="m834.93-38.16c-4.64,14.59-9.05,29.26-13.24,43.93-2.87-.23-5.73-.41-8.6-.6,7.05-14.48,14.33-28.92,21.83-43.33Z"/>
        <path class="cls-6" d="m1279.22,329.27c-1.21-2.04-2.45-4.07-3.77-6.11,1.36-.53,2.72-1.02,4.07-1.55-2.83-1.92-5.66-3.77-8.48-5.54-3.02-4.68-6.03-9.28-9.16-13.88,1.36-1.89,2.68-3.77,3.96-5.69,11.35,10.56,17.5,21.76,13.39,32.77Z"/>
        <path class="cls-6" d="m1279.52,321.62c-1.36.53-2.71,1.02-4.07,1.55-1.43-2.38-2.9-4.71-4.41-7.09,2.83,1.77,5.66,3.62,8.48,5.54Z"/>
        <path class="cls-6" d="m1265.83,296.5c-1.28,1.92-2.6,3.81-3.96,5.69-2.64-3.96-5.36-7.84-8.11-11.73,1.47-.15,2.9-.3,4.37-.49,2.75,2.15,5.35,4.3,7.69,6.52Z"/>
        <path class="cls-6" d="m1271.34,288.36c-1.77,2.72-3.62,5.43-5.51,8.15-2.34-2.23-4.94-4.37-7.69-6.52,4.41-.49,8.79-1.02,13.2-1.62Z"/>
        <path class="cls-6" d="m1301.77,283.72c-4.03,15.99-7.96,32.01-11.8,48.08.04.04,0,.08,0,.08-.57.9-1.09,1.81-1.66,2.71-1.7.45-3.39.87-5.09,1.32-1.28-2.23-2.6-4.45-4-6.64,4.11-11.01-2.04-22.21-13.39-32.77,1.89-2.72,3.73-5.43,5.51-8.15,10.18-1.32,20.32-2.86,30.43-4.64Z"/>
        <path class="cls-1" d="m1289.96,331.88c-.19.79-.38,1.62-.57,2.45-.38.08-.72.15-1.09.26.57-.9,1.09-1.81,1.66-2.71Z"/>
        <path class="cls-1" d="m1319.19,156.04c.15,6.18-.38,12.41-1.21,18.4-.64,4.45-1.39,8.86-2.3,13.2-9.35-3.17-18.7-6.45-28.02-9.77,4.67-9.09,9.46-18.1,14.37-27.11.49-.9.98-1.77,1.47-2.68,5.24,2.64,10.45,5.32,15.69,7.96Z"/>
        <path class="cls-6" d="m1335.89,164.41c-3.47,8.86-6.52,17.91-9.31,26.92-3.66-1.21-7.28-2.41-10.9-3.7.9-4.34,1.66-8.75,2.3-13.2.83-6,1.36-12.22,1.21-18.4,5.58,2.83,11.12,5.62,16.7,8.37Z"/>
        <path class="cls-6" d="m1138.49,1213.06c-4.19,27.15-8.45,54.3-12.75,81.45l-43.7-38.09c6.33-3.81,12.82-8.45,19.34-13.84.04-.04.11-.08.15-.11,12.71-9.39,25.04-19.19,36.95-29.41Z"/>
        <path class="cls-6" d="m452.07,1359.44s-16.67,7.54-42.65,18.63c-.23-.45-.45-.94-.68-1.43-11.16-23.98-21.76-48.23-31.75-72.7,1.06.04,2.07.04,3.09.04,1.96.98,3.92,1.96,5.92,2.87.04,0,.04.04.08.04l.04.04c31.9,28.92,56,47.06,65.95,52.53Z"/>
        <path class="cls-5" d="m347.58,141.67c-.04.57-.15,1.13-.23,1.66-11.16,69.2-19.23,138.88-24.17,208.76-17.01,3.7-33.98,7.54-50.91,11.58,12.44-75.72,29.98-150.61,52.6-223.99,7.58.64,15.12,1.28,22.7,2Z"/>
        <path class="cls-5" d="m1248.48,283.08c-2.64-1.73-5.35-3.47-8.14-5.13.53-1.24,1.06-2.49,1.62-3.7,2.23,2.9,4.37,5.85,6.52,8.82Z"/>
        <path class="cls-6" d="m1283.21,335.91c-3.2.79-6.45,1.58-9.69,2.34,2.75-2.98,4.64-5.96,5.69-8.97,1.4,2.19,2.72,4.41,4,6.64Z"/>
        <path class="cls-6" d="m1253.76,290.47c-6.49.72-13.01,1.36-19.57,1.92,2.04-4.83,4.07-9.65,6.15-14.44,2.79,1.66,5.51,3.39,8.14,5.13,1.77,2.45,3.54,4.9,5.28,7.39Z"/>
        <path class="cls-6" d="m1271.03,316.08c-4.41-2.79-8.86-5.47-13.35-7.99,1.43-1.96,2.83-3.92,4.19-5.88,3.13,4.6,6.15,9.2,9.16,13.88Z"/>
        <path class="cls-6" d="m1261.87,302.2c-1.36,1.96-2.75,3.92-4.19,5.88-8.18-4.6-16.4-8.79-24.77-12.59.41-1.02.83-2.07,1.28-3.09,6.56-.57,13.08-1.21,19.57-1.92,2.75,3.88,5.47,7.77,8.11,11.73Z"/>
        <path class="cls-6" d="m1257.68,308.08c-6.79,9.31-13.84,18.4-21,27.3-.75.9-1.47,1.85-2.26,2.75h-.04c-7.13,2.56-14.29,5.05-21.46,7.47,6.37-16.78,13.05-33.52,19.99-50.12,8.37,3.81,16.59,7.99,24.77,12.59Z"/>
        <path class="cls-6" d="m1275.44,323.16c-13.61,5.17-27.26,10.14-41.03,14.97.79-.91,1.51-1.85,2.26-2.75,7.16-8.9,14.22-17.99,21-27.3,4.49,2.53,8.94,5.2,13.35,7.99,1.51,2.38,2.98,4.71,4.41,7.09Z"/>
        <path class="cls-6" d="m1279.22,329.27c-1.06,3.02-2.94,6-5.69,8.97-15.39,3.62-31.07,6.71-46.91,9.31,2.64-3.13,5.24-6.26,7.77-9.43h.04c13.76-4.83,27.41-9.8,41.03-14.97,1.32,2.04,2.56,4.07,3.77,6.11Z"/>
        <path class="cls-6" d="m1234.38,338.14c-2.53,3.17-5.13,6.3-7.77,9.43-5.09.83-10.18,1.62-15.31,2.34.53-1.43,1.06-2.87,1.62-4.3,7.16-2.41,14.33-4.9,21.46-7.47Z"/>
        <path class="cls-6" d="m1226.61,347.56c-8.14,9.77-16.52,19.34-25.04,28.77,3.17-8.86,6.41-17.65,9.73-26.43,5.13-.72,10.22-1.51,15.31-2.34Z"/>
        <path class="cls-6" d="m1273.52,338.25c-4.3,4.71-10.79,9.31-19.87,13.8-17.27,8.52-34.69,16.78-52.23,24.77.04-.19.11-.34.15-.49,8.52-9.43,16.89-19.01,25.04-28.77,15.84-2.6,31.53-5.7,46.91-9.31Z"/>
        <path class="cls-6" d="m1285.32,339.42c-2.15,3.43-4.34,6.83-6.52,10.22-32.51,49.85-70.59,95.22-112.75,136.69,10.63-36.92,22.4-73.42,35.37-109.51,17.53-7.99,34.96-16.25,52.23-24.77,9.09-4.49,15.57-9.09,19.87-13.8,3.24-.75,6.49-1.55,9.69-2.34.72,1.17,1.43,2.34,2.11,3.51Z"/>
        <path class="cls-5" d="m1287.32,342.96c-21.61,91.71-40.05,184.06-56.6,276.86-6.52,4.41-13.08,8.75-19.65,13.05-6.75,4.41-13.5,8.79-20.29,13.12-20.93-2.15-41.86-4.49-62.75-6.98,10.82-51.44,23.38-102.38,38.01-152.65v-.04c42.16-41.48,80.24-86.84,112.75-136.69,2.19-3.39,4.37-6.79,6.52-10.22.68,1.17,1.36,2.34,2,3.54Z"/>
        <path class="cls-6" d="m1230.72,619.82c-1.77,9.88-3.51,19.76-5.2,29.64-11.58-1.09-23.15-2.26-34.73-3.47,6.79-4.34,13.54-8.71,20.29-13.12,6.56-4.3,13.12-8.64,19.65-13.05Z"/>
        <path class="cls-6" d="m1190.79,645.99c-24.06,15.42-48.46,30.36-73.08,44.87,3.24-17.35,6.67-34.62,10.33-51.85,20.89,2.49,41.82,4.83,62.75,6.98Z"/>
        <path class="cls-6" d="m1225.52,649.46c-3.81,21.72-7.5,43.44-11.12,65.16v.04c-1.36.94-2.71,1.89-4.11,2.79-32.32,0-64.63-.98-96.95-2.68,1.43-7.99,2.86-15.95,4.37-23.91,24.62-14.52,49.02-29.45,73.08-44.87,11.58,1.21,23.15,2.38,34.73,3.47Z"/>
        <path class="cls-6" d="m1210.28,717.45c-35.26,24.02-71.5,46.61-108.45,67.95,3.51-23.61,7.35-47.17,11.5-70.63,32.32,1.7,64.63,2.68,96.95,2.68Z"/>
        <path class="cls-5" d="m1213.94,717.41c-16.25,98.31-30.96,196.99-45.51,295.68-30.39-1.21-60.82-3.17-91.29-5.88,5.73-74.25,13.73-148.35,24.7-221.8,36.95-21.34,73.19-43.93,108.45-67.95,1.21,0,2.45,0,3.66-.04Z"/>
        <path class="cls-6" d="m1168.43,1013.09c-2.94,19.57-5.81,39.1-8.71,58.64-28.92-.45-57.88-1.7-86.81-3.62,1.24-20.29,2.64-40.61,4.22-60.9,30.47,2.71,60.9,4.68,91.29,5.88Z"/>
        <path class="cls-5" d="m1159.72,1071.73c-6.41,43.33-12.86,86.62-19.5,129.91-24.47,7.24-49.13,13.99-73.99,20.33,1.36-51.17,3.55-102.53,6.67-153.85,28.92,1.92,57.88,3.17,86.81,3.62Z"/>
        <path class="cls-6" d="m1139.99,1203.1c-.49,3.32-1.02,6.64-1.51,9.96-11.92,10.22-24.25,20.02-36.95,29.41,12.6-10.41,25.49-23.64,38.46-39.37Z"/>
        <path class="cls-6" d="m1140.22,1201.63c-.08.49-.15.98-.23,1.47-12.97,15.72-25.87,28.96-38.46,39.37-.04.04-.11.08-.15.11-6.33,4.71-12.78,9.31-19.34,13.84-5.58,3.81-11.2,7.58-16.89,11.27.04-2.6.11-5.17.15-7.77.26-12.63.57-25.3.94-37.97,24.85-6.33,49.51-13.08,73.99-20.33Z"/>
        <path class="cls-6" d="m971.62,1318.19c-13.54,6.03-27.34,11.69-41.44,16.89-6.3,2.34-12.6,4.56-18.93,6.67-9.92-26.74-19.38-53.62-28.43-80.66,23.38-4.07,46.68-8.45,69.84-13.12,6.07,23.46,12.41,46.87,18.97,70.21Z"/>
        <path class="cls-5" d="m952.66,1247.98c-23.15,4.68-46.46,9.05-69.84,13.12-24.7-73.57-46.31-148.31-64.41-223.8,29.49,5.2,59.05,9.84,88.62,13.88,13.46,65.99,28.66,131.64,45.63,196.8Z"/>
        <path class="cls-6" d="m907.03,1051.17c-29.56-4.03-59.13-8.67-88.62-13.88-5.85-24.25-11.31-48.61-16.37-73,30.47,6.67,61.01,12.78,91.63,18.25,4.22,22.93,8.67,45.82,13.35,68.63Z"/>
        <path class="cls-5" d="m893.68,982.54c-30.62-5.47-61.16-11.58-91.63-18.25-2.07-9.8-4.07-19.61-6-29.45,1.13-.49,2.23-.94,3.36-1.43,26.66-11.35,53.28-23,79.72-34.96,4.52,28.09,9.39,56.11,14.56,84.09Z"/>
        <path class="cls-6" d="m879.12,898.45c-26.43,11.95-53.06,23.61-79.72,34.96-1.13.49-2.23.94-3.36,1.43-4.71-24.13-9.09-48.27-13.05-72.51v-.04c28.32-12.9,56.56-26.06,84.66-39.52,3.54,25.26,7.35,50.49,11.46,75.68Z"/>
        <path class="cls-5" d="m867.66,822.77c-28.09,13.46-56.34,26.62-84.66,39.52-6.22-37.86-11.5-75.8-15.8-113.81,18.48-8.64,36.84-17.57,55.05-26.7,10.26-5.17,20.51-10.41,30.73-15.76,4.26,38.99,9.16,77.91,14.67,116.75Z"/>
        <path class="cls-5" d="m773.35,679.4c-4.15,2-8.3,4-12.44,5.92-.19-2.56-.41-5.13-.64-7.69,4.34.57,8.71,1.17,13.08,1.77Z"/>
        <path class="cls-6" d="m852.99,706.02c-10.22,5.36-20.48,10.6-30.73,15.76-18.21,9.13-36.58,18.06-55.05,26.7-2.41-21.04-4.49-42.12-6.3-63.16,4.15-1.92,8.3-3.92,12.44-5.92,25.94,3.54,51.89,6.98,77.87,10.26.57,5.47,1.17,10.94,1.77,16.37Z"/>
        <path class="cls-6" d="m851.22,689.66c-25.98-3.28-51.93-6.71-77.87-10.26,4.52-2.15,9.05-4.34,13.54-6.52,20.02-9.8,39.93-19.91,59.66-30.39,1.47,15.72,3.02,31.45,4.67,47.17Z"/>
        <path class="cls-6" d="m846.54,642.48c-19.72,10.48-39.63,20.59-59.66,30.39-4.49,2.19-9.01,4.37-13.54,6.52-4.37-.6-8.75-1.21-13.08-1.77-2.45-30.51-4.3-61.05-5.43-91.56,29.3,4.45,58.64,8.9,87.97,13.31,1.13,14.37,2.38,28.73,3.73,43.1Z"/>
        <path class="cls-5" d="m842.81,599.38c-29.34-4.41-58.67-8.86-87.97-13.31-.79-20.14-1.24-40.24-1.4-60.37,27.75-6.52,55.36-13.39,82.81-20.66,1.81,31.49,3.96,62.94,6.56,94.35Z"/>
        <path class="cls-6" d="m836.25,505.03c-27.45,7.28-55.05,14.14-82.81,20.66-.23-22.66-.04-45.36.53-68.03,26.51-4.79,52.94-9.77,79.3-14.93.83,20.78,1.81,41.56,2.98,62.3Z"/>
        <path class="cls-5" d="m831.01,367.59c-3.58.19-7.13.38-10.71.64,3.55-2,7.09-3.96,10.6-5.96.04,1.77.08,3.54.11,5.32Z"/>
        <path class="cls-5" d="m833.27,442.74c-26.36,5.17-52.79,10.14-79.3,14.93.45-18.14,1.17-36.24,2.11-54.34,21.49-11.5,42.88-23.19,64.18-35.11h.04c3.58-.26,7.13-.45,10.71-.64.49,25.08,1.24,50.12,2.26,75.15Z"/>
        <path class="cls-6" d="m820.26,368.23c-21.31,11.92-42.69,23.6-64.18,35.11.53-10.26,1.17-20.51,1.89-30.77,20.78-1.62,41.52-3.09,62.3-4.34Z"/>
        <path class="cls-6" d="m830.89,362.27c-3.51,2-7.05,3.96-10.6,5.96h-.04c-20.78,1.24-41.52,2.71-62.3,4.34,1.36-19.95,3.05-39.9,5.13-59.77v-.04c13.5-6.9,26.96-13.76,40.46-20.66,8.9-.26,17.76-.49,26.66-.64,0,23.61.23,47.21.68,70.82Z"/>
        <path class="cls-6" d="m803.56,292.09c-13.5,6.9-26.96,13.76-40.46,20.66.6-6.45,1.28-12.82,2.04-19.23,12.78-.6,25.6-1.06,38.43-1.43Z"/>
        <path class="cls-6" d="m830.29,278.44c-.08,4.34-.08,8.67-.08,13.01-8.9.15-17.76.38-26.66.64,8.9-4.56,17.84-9.09,26.74-13.65Z"/>
        <path class="cls-5" d="m831.27,202.68c-.6,25.27-.94,50.49-.98,75.76-8.9,4.56-17.84,9.09-26.74,13.65-12.82.38-25.64.83-38.43,1.43,3.7-33.18,8.3-66.25,13.88-99.21,6.18.94,12.37,1.92,18.55,2.9,11.24,1.77,22.47,3.58,33.71,5.47Z"/>
        <path class="cls-6" d="m833.27,140.24c-.87,20.82-1.55,41.63-2,62.45-11.24-1.89-22.48-3.7-33.71-5.47-6.18-.98-12.37-1.96-18.55-2.9,3.54-21.27,7.54-42.46,11.92-63.58,14.14,3.05,28.24,6.22,42.35,9.5Z"/>
        <path class="cls-5" d="m836.59,72.74c-1.36,22.47-2.45,44.99-3.32,67.5-14.1-3.28-28.21-6.45-42.35-9.5,4.07-19.87,8.52-39.67,13.39-59.39,10.79.38,21.53.83,32.28,1.4Z"/>
        <path class="cls-6" d="m840.36,15.65c-.38,4.79-.75,9.58-1.09,14.37-.98,14.25-1.89,28.47-2.68,42.72-10.75-.57-21.49-1.02-32.28-1.4,4.86-20.06,10.11-40.01,15.72-59.92,6.79,1.28,13.58,2.68,20.33,4.22Z"/>
        <path class="cls-6" d="m810.87,9.73c-9.92,20.29-19.46,40.61-28.66,61.01-19.95-.45-39.9-.57-59.88-.34,14.29-24.36,29.94-47.97,46.04-66.9,14.25,1.62,28.43,3.7,42.5,6.22Z"/>
        <path class="cls-5" d="m782.21,70.74c-7.99,17.72-15.73,35.52-23.27,53.36-19.99-4.03-40.01-7.81-60.07-11.31,7.24-13.88,15.12-28.28,23.45-42.38,19.99-.23,39.93-.11,59.88.34Z"/>
        <path class="cls-6" d="m758.95,124.1c-8.82,21-17.35,42.08-25.6,63.28-22.1-3.28-44.2-6.45-66.29-9.5,8.03-17.31,18.97-40.42,31.83-65.09,20.06,3.51,40.08,7.28,60.07,11.31Z"/>
        <path class="cls-5" d="m733.34,187.37c-14.25,36.54-27.68,73.38-40.39,110.49-27.26,2-54.49,4.45-81.64,7.35,14.78-36.58,30.47-72.78,47.06-108.56,2.3-4.98,5.2-11.35,8.67-18.78,22.1,3.05,44.19,6.22,66.29,9.5Z"/>
        <path class="cls-6" d="m692.95,297.86c-6.98,20.21-13.73,40.5-20.25,60.9v.04c-18.06,9.13-36.16,18.21-54.3,27.23-13.31,1.55-26.58,3.13-39.86,4.83,10.37-28.73,21.31-57.32,32.77-85.64,27.15-2.9,54.38-5.36,81.64-7.35Z"/>
        <path class="cls-5" d="m618.4,386.03c-15.39,7.69-30.81,15.31-46.27,22.85,2.11-6,4.26-12.03,6.41-18.02,13.27-1.7,26.55-3.28,39.86-4.83Z"/>
        <path class="cls-6" d="m672.71,358.8c-2.41,7.35-4.75,14.74-7.09,22.13-15.76,1.58-31.49,3.28-47.21,5.09,18.14-9.01,36.24-18.1,54.3-27.23Z"/>
        <path class="cls-6" d="m665.62,380.93c-8.52,26.92-16.74,54-24.74,81.26-16.44,8.03-32.96,15.88-49.51,23.57-15.76,2.6-31.49,5.24-47.25,7.88,8.79-28.43,18.14-56.68,28.02-84.77,15.46-7.54,30.88-15.16,46.27-22.85,15.72-1.81,31.45-3.51,47.21-5.09Z"/>
        <path class="cls-6" d="m591.37,485.77c-17.31,8.07-34.69,15.95-52.11,23.64,1.58-5.28,3.21-10.52,4.86-15.76,15.76-2.64,31.49-5.28,47.25-7.88Z"/>
        <path class="cls-5" d="m640.88,462.2c-1.58,5.35-3.17,10.67-4.71,16.03-14.93,2.53-29.87,5.02-44.8,7.54,16.55-7.69,33.07-15.54,49.51-23.57Z"/>
        <path class="cls-6" d="m636.17,478.22c-7.43,25.53-14.67,51.21-21.8,77.08-10.33,2.04-20.66,3.96-31.03,5.88-19.01-2.64-38.01-5.13-57.02-7.58,4.15-14.78,8.48-29.53,12.93-44.19,17.42-7.69,34.81-15.57,52.11-23.64,14.93-2.53,29.87-5.02,44.8-7.54Z"/>
        <path class="cls-5" d="m614.37,555.3c-.64,2.26-1.24,4.53-1.89,6.79-.26.98-.53,2-.83,2.98-9.43-1.32-18.85-2.64-28.32-3.88,10.37-1.92,20.7-3.85,31.03-5.88Z"/>
        <path class="cls-6" d="m583.34,561.18c-20.67,3.81-41.41,7.47-62.18,11.01,1.66-6.18,3.39-12.41,5.17-18.59,19.01,2.45,38.01,4.94,57.02,7.58Z"/>
        <path class="cls-6" d="m611.65,565.07c-8.03,29.3-15.73,58.64-23.15,88.09-28.39-4.07-56.79-8.11-85.18-11.99,5.58-23.08,11.54-46.08,17.84-68.97,20.78-3.54,41.52-7.2,62.18-11.01,9.46,1.24,18.89,2.56,28.32,3.88Z"/>
        <path class="cls-5" d="m588.5,653.16c-9.54,37.97-18.59,76.1-27.11,114.3-29.98,10.63-60.15,20.55-90.58,29.83,9.09-52.38,19.95-104.45,32.51-156.11,28.39,3.88,56.79,7.92,85.18,11.99Z"/>
        <path class="cls-6" d="m561.39,767.45c-5.13,23.04-10.07,46.16-14.82,69.27-28.58,9.5-57.36,18.33-86.32,26.4,3.21-21.98,6.71-43.93,10.56-65.84,30.43-9.28,60.6-19.19,90.58-29.83Z"/>
        <path class="cls-5" d="m546.57,836.72c-3.73,18.1-7.35,36.2-10.82,54.34-25.38-8.22-50.64-16.82-75.83-25.68.11-.75.23-1.51.34-2.26,28.96-8.07,57.73-16.89,86.32-26.4Z"/>
        <path class="cls-6" d="m535.75,891.06c-4.64,24.13-9.05,48.34-13.31,72.55-24.13-7.88-48.15-16.22-72.02-25.04,2.79-24.44,5.96-48.83,9.5-73.19,25.19,8.86,50.46,17.46,75.83,25.68Z"/>
        <path class="cls-5" d="m522.43,963.61c-.3,1.92-.64,3.85-.98,5.77-25.34,8.52-50.87,16.37-76.62,23.42,1.66-18.1,3.51-36.16,5.58-54.23,23.87,8.82,47.89,17.16,72.02,25.04Z"/>
        <path class="cls-6" d="m521.45,969.38c-3.92,22.51-7.62,45.06-11.16,67.65-23.27,6.15-46.65,11.69-70.25,16.52,1.36-20.29,2.94-40.54,4.79-60.75,25.76-7.05,51.28-14.89,76.62-23.42Z"/>
        <path class="cls-6" d="m473.38,1302.54c-1.73,9.31-3.62,18.63-5.73,27.87-.64,2.75-1.39,6.03-2.34,9.62-27.08-9.35-53.51-20.4-79.19-33.11l-.04-.04s-.04-.04-.08-.04c-1.02-.94-2.07-1.92-3.13-2.87,30.28.11,60.49-.41,90.5-1.43Z"/>
        <path class="cls-5" d="m510.29,1037.03c-7.16,45.63-13.57,91.41-19.23,137.26-5.28,42.8-9.8,85.86-17.69,128.25-30.02,1.02-60.22,1.55-90.5,1.43-3.05-2.83-6.18-5.69-9.39-8.71-29.15-72.48-53.21-146.95-72.14-222.75,26.06-1.7,52.08-4.49,77.87-8.26,15.76,67.99,34.54,135.3,56.26,201.63-1.62-70.82-.08-141.67,4.56-212.34,23.61-4.83,46.99-10.37,70.25-16.52Z"/>
        <path class="cls-6" d="m379.22,1064.26c-25.79,3.77-51.81,6.56-77.87,8.26-4.07-16.25-7.88-32.58-11.46-48.95,26.02-3.05,51.96-7.28,77.64-12.41,3.7,17.72,7.58,35.45,11.69,53.09Z"/>
        <path class="cls-5" d="m367.53,1011.16c-25.68,5.13-51.62,9.35-77.64,12.41-8.6-39.26-15.84-78.81-21.76-118.56,23.04-3.58,46-7.69,68.89-12.33,3.21,1.43,6.41,2.83,9.62,4.19,6,38.27,12.97,76.36,20.89,114.3Z"/>
        <path class="cls-1" d="m346.64,896.87c-3.21-1.36-6.41-2.75-9.62-4.19,2.9-.57,5.81-1.13,8.67-1.77.3,2,.6,4,.94,5.96Z"/>
        <path class="cls-6" d="m337.02,892.68c-22.89,4.64-45.85,8.75-68.89,12.33-2.3-15.76-4.41-31.56-6.33-47.4,24.85,12.26,49.93,23.95,75.23,35.07Z"/>
        <path class="cls-6" d="m345.69,890.91c-2.87.64-5.77,1.21-8.67,1.77-25.3-11.12-50.38-22.81-75.23-35.07-.3-2.6-.6-5.17-.9-7.73,2.94-.57,5.84-1.17,8.79-1.77,5.24-1.06,10.52-2.11,15.76-3.24,1.62-.34,3.24-.68,4.86-1.02,4.79-1.02,9.54-2.04,14.33-3.13,10.97-2.38,21.95-4.86,32.85-7.43,2.49,19.23,5.2,38.46,8.22,57.62Z"/>
        <path class="cls-6" d="m337.47,833.29c-10.9,2.56-21.87,5.05-32.85,7.43-4.79,1.09-9.54,2.11-14.33,3.13-1.62.34-3.24.68-4.86,1.02-5.24,1.13-10.52,2.19-15.76,3.24-2.94.6-5.85,1.21-8.79,1.77-2.38-20.51-4.37-41.07-6.03-61.62,26.32,10.03,52.68,19.99,78.96,30.24.6.23,1.24.49,1.85.72.57,4.68,1.17,9.39,1.81,14.07Z"/>
        <path class="cls-5" d="m335.66,819.23c-.6-.23-1.24-.49-1.85-.72-26.28-10.26-52.64-20.21-78.96-30.24-4.6-57.13-6.41-114.48-5.39-171.8,4.6-1.36,9.24-2.71,13.84-4.15h.04c14.37,1.36,28.7,2.83,43.06,4.34,4.22.45,8.45.9,12.67,1.36,2.71,67.27,8.22,134.43,16.59,201.21Z"/>
        <path class="cls-6" d="m263.3,612.32c-4.6,1.43-9.24,2.79-13.84,4.15.04-1.81.08-3.62.11-5.43,4.6.42,9.16.87,13.73,1.28Z"/>
        <path class="cls-6" d="m279.93,607.26c-5.51,1.73-11.05,3.43-16.59,5.05h-.04c-4.56-.42-9.13-.87-13.73-1.28v-.04c10.14-1.21,20.25-2.45,30.35-3.73Z"/>
        <path class="cls-6" d="m319.07,618.01c-4.22-.45-8.45-.9-12.67-1.36-14.37-1.51-28.7-2.98-43.06-4.34,5.54-1.62,11.09-3.32,16.59-5.05h.08c12.86-1.58,25.72-3.24,38.54-4.9.15,5.24.34,10.45.53,15.65Z"/>
        <path class="cls-6" d="m318.54,602.36c-12.82,1.66-25.68,3.32-38.54,4.9,12.78-4,25.57-8.11,38.28-12.33.08,2.49.15,4.98.26,7.43Z"/>
        <path class="cls-6" d="m318.28,594.93c-12.71,4.22-25.49,8.33-38.28,12.33h-.08c-10.11,1.28-20.21,2.53-30.35,3.73.41-20.59,1.21-41.18,2.38-61.77,5.24-1.96,10.48-3.92,15.69-5.92,1.43-.53,2.83-1.09,4.26-1.66h.11c15.05-2.94,30.09-5.81,45.18-8.64.08,20.66.45,41.29,1.09,61.92Z"/>
        <path class="cls-6" d="m317.19,531.77c-5.54-.42-11.12-.83-16.7-1.24,5.58-2.19,11.12-4.41,16.67-6.67,0,2.64,0,5.28.04,7.92Z"/>
        <path class="cls-6" d="m271.9,541.65c-1.43.57-2.83,1.13-4.26,1.66-5.2,2-10.45,3.96-15.69,5.92.04-1.21.11-2.41.19-3.66,6.56-1.32,13.16-2.6,19.76-3.92Z"/>
        <path class="cls-6" d="m300.48,530.53c-9.46,3.77-18.97,7.47-28.47,11.12h-.11c-6.6,1.32-13.2,2.6-19.76,3.92.34-6,.72-12.03,1.13-18.02,15.72.87,31.41,1.85,47.1,2.98h.11Z"/>
        <path class="cls-5" d="m318.81,432.6c-1.13,30.39-1.7,60.83-1.66,91.26-5.54,2.26-11.09,4.49-16.67,6.67h-.11c-15.69-1.13-31.37-2.11-47.1-2.98,1.89-27.75,4.45-55.47,7.66-83.11,19.27-4.11,38.54-8.07,57.88-11.84Z"/>
        <path class="cls-6" d="m323.18,352.09c-1.92,26.81-3.39,53.66-4.37,80.51-19.34,3.77-38.61,7.73-57.88,11.84,3.17-27,6.94-53.92,11.35-80.77,16.93-4.04,33.9-7.88,50.91-11.58Z"/>
        <path class="cls-5" d="m347.58,141.67c-7.58-.72-15.12-1.36-22.7-2,4.34-14.07,8.86-28.06,13.57-41.97,1.55-.19,3.09-.34,4.64-.53,6.41,11.88,6.67,29.83,4.49,44.5Z"/>
      </g>
    </g>
  </g>
</svg>