<?xml version="1.0" encoding="UTF-8"?>
<svg
    id="Layer_2"
    data-name="Layer 2"
    xmlns="http://www.w3.org/2000/svg"
    viewBox="0 0 1127.48 970.56"
>
    <defs>
        <style>
        .cls-1 {
            fill: currentColor;
        }
        </style>
    </defs>
    <g id="Layer_1-2" data-name="Layer 1">
        <g>
            <path
                class="cls-1"
                d="m1126.78,22.97l-264.89,934.46c-2.2,7.77-9.29,13.13-17.37,13.13h-141.74c-11.98,0-20.63-11.45-17.37-22.97L950.31,13.13c2.2-7.77,9.29-13.13,17.37-13.13h141.74c11.98,0,20.63,11.45,17.37,22.97Z"
            />
            <path
                class="cls-1"
                d="m758.02,18.85l-266.73,940.95c-1.81,6.37-7.62,10.77-14.25,10.77h-148.48c-9.83,0-16.93-9.39-14.25-18.85L580.39,13.09c2.2-7.75,9.27-13.09,17.32-13.09h146.07c9.83,0,16.93,9.39,14.25,18.85Z"
            />
            <rect class="cls-1" y="741.97" width="190.45" height="228.59" rx="18.34" ry="18.34" />
        </g>
    </g>
</svg>
