<?xml version="1.0" encoding="UTF-8"?>
<svg
    id="Layer_2"
    data-name="Layer 2"
    xmlns="http://www.w3.org/2000/svg"
    xmlns:xlink="http://www.w3.org/1999/xlink"
    viewBox="0 0 1154.95 690.24"
>
    <defs>
        <style>
        .cls-1 {
            fill: none;
        }

        .cls-2 {
            clip-path: url(#clippath);
        }

        .cls-3, .cls-4 {
            fill: #f95948;
        }

        .cls-5, .cls-6 {
            fill: #9d4edd;
        }

        .cls-7 {
            fill: #8800c7;
        }

        .cls-8 {
            fill: #9233c4;
        }

        .cls-9 {
            letter-spacing: -0.03em;
        }

        .cls-10 {
            letter-spacing: -0.03em;
        }

        .cls-6 {
            font-family: UniNeue-Trial-Bold, "Uni Neue-Trial";
            font-size: 59.55px;
            font-weight: 700;
        }

        .cls-11 {
            letter-spacing: -0.01em;
        }

        .cls-12 {
            letter-spacing: -0.02em;
        }

        .cls-13 {
            letter-spacing: 0em;
        }

        .cls-14 {
            letter-spacing: -0.06em;
        }

        .cls-15 {
            letter-spacing: 0em;
        }

        .cls-16 {
            letter-spacing: 0em;
        }

        .cls-17 {
            letter-spacing: 0em;
        }

        .cls-18 {
            letter-spacing: 0em;
        }

        .cls-4, .cls-19, .cls-20, .cls-21 {
            opacity: 0.55;
        }

        .cls-19 {
            fill: #d22;
        }

        .cls-20 {
            fill: #e81840;
        }

        .cls-21 {
            fill: #e82849;
        }

        .cls-22 {
            fill: #c10827;
            opacity: 0.81;
        }
        </style>
        <clipPath id="clippath">
            <circle
                class="cls-1"
                cx="429.9"
                cy="403.69"
                r="182.43"
                transform="translate(-159.54 422.23) rotate(-45)"
            />
        </clipPath>
    </defs>
    <g id="Layer_1-2" data-name="Layer 1">
        <g>
            <g>
                <path
                    class="cls-7"
                    d="m46.62,437.75v140.36c0,3.47-2.81,6.28-6.28,6.28H7.07c-3.47,0-6.28-2.81-6.28-6.28V234.01c0-3.47,2.81-6.28,6.28-6.28h195.66c3.47,0,6.28,2.81,6.28,6.28v31.27c0,3.47-2.81,6.28-6.28,6.28H52.9c-3.47,0-6.28,2.81-6.28,6.28v104.5c0,3.47,2.81,6.28,6.28,6.28h133.89c3.47,0,6.28,2.81,6.28,6.28v30.28c0,3.47-2.81,6.28-6.28,6.28H52.9c-3.47,0-6.28,2.81-6.28,6.28Z"
                />
                <path
                    class="cls-7"
                    d="m879.49,489.25c0,31.22-11.46,56.29-34.37,75.22-23.25,18.6-51.48,27.9-84.68,27.9-29.56,0-55.63-8.63-78.21-25.9-20.67-15.8-35.5-36.89-44.48-63.27-1.42-4.16.68-8.71,4.75-10.37l28.4-11.62c4.41-1.8,9.4.46,11.01,4.95,2.64,7.38,5.9,14.22,9.79,20.53,5.31,8.64,11.53,16.03,18.68,22.17,7.14,6.15,15.02,10.96,23.66,14.45,8.63,3.49,17.76,5.23,27.4,5.23,20.92,0,38.02-5.39,51.31-16.19,13.28-10.79,19.93-25.16,19.93-43.09,0-14.94-5.48-27.72-16.44-38.36-10.3-10.29-29.56-20.25-57.78-29.89-28.56-10.29-46.33-17.26-53.3-20.92-37.86-19.26-56.79-47.65-56.79-85.18,0-26.23,10.46-48.65,31.38-67.25,21.25-18.59,47.32-27.9,78.21-27.9,27.23,0,50.81,6.97,70.74,20.92,17.34,11.85,29.65,26.35,36.93,43.48,1.8,4.24-.22,9.14-4.47,10.92l-27.46,11.5c-4.2,1.76-8.99-.19-10.85-4.34-4.44-9.91-11.38-18.39-20.81-25.44-11.79-8.79-26.15-13.2-43.09-13.2-17.93,0-33.05,4.98-45.33,14.94-12.29,9.3-18.43,21.42-18.43,36.36,0,12.29,4.81,22.91,14.45,31.88,10.62,8.97,33.7,19.6,69.24,31.88,36.19,12.29,62.02,27.32,77.46,45.08,15.44,17.77,23.16,39.6,23.16,65.5Z"
                />
                <path
                    class="cls-7"
                    d="m1154.95,489.25c0,31.22-11.46,56.29-34.37,75.22-23.25,18.6-51.48,27.9-84.68,27.9-29.56,0-55.63-8.63-78.21-25.9-20.66-15.79-35.47-36.86-44.46-63.21-1.43-4.19.68-8.77,4.78-10.45l28.28-11.57c4.44-1.82,9.47.46,11.09,4.98,2.64,7.35,5.89,14.18,9.77,20.47,5.31,8.64,11.53,16.03,18.68,22.17,7.14,6.15,15.02,10.96,23.66,14.45,8.63,3.49,17.76,5.23,27.4,5.23,20.92,0,38.02-5.39,51.31-16.19,13.28-10.79,19.93-25.16,19.93-43.09,0-14.94-5.48-27.72-16.44-38.36-10.3-10.29-29.56-20.25-57.78-29.89-28.56-10.29-46.33-17.26-53.3-20.92-37.86-19.26-56.79-47.65-56.79-85.18,0-26.23,10.46-48.65,31.38-67.25,21.25-18.59,47.32-27.9,78.21-27.9,27.23,0,50.81,6.97,70.74,20.92,17.32,11.84,29.62,26.31,36.91,43.42,1.82,4.27-.22,9.21-4.5,11l-27.35,11.45c-4.23,1.77-9.05-.2-10.93-4.38-4.44-9.89-11.37-18.35-20.78-25.38-11.79-8.79-26.15-13.2-43.09-13.2-17.93,0-33.05,4.98-45.33,14.94-12.29,9.3-18.43,21.42-18.43,36.36,0,12.29,4.81,22.91,14.45,31.88,10.62,8.97,33.7,19.6,69.24,31.88,36.19,12.29,62.02,27.32,77.46,45.08,15.44,17.77,23.16,39.6,23.16,65.5Z"
                />
            </g>
            <text class="cls-6" transform="translate(.79 676.66)"><tspan x="0" y="0"
                >IN</tspan><tspan class="cls-16" x="58.95" y="0">F</tspan><tspan x="92.12" y="0"
                >ORM</tspan><tspan class="cls-14" x="221.63" y="0">A</tspan><tspan x="256.22" y="0"
                >TICS IN</tspan><tspan class="cls-13" x="451.35" y="0">S</tspan><tspan
                    x="487.73"
                    y="0"
                >TITUTE O</tspan><tspan class="cls-12" x="737.4" y="0">F</tspan><tspan
                    class="cls-10"
                    x="769.62"
                    y="0"
                >
                </tspan><tspan x="780.63" y="0">T</tspan><tspan class="cls-15" x="814.99" y="0"
                >E</tspan><tspan x="849.41" y="0">CHNO</tspan><tspan
                    class="cls-11"
                    x="1007.98"
                    y="0"
                >L</tspan><tspan class="cls-18" x="1038.46" y="0">O</tspan><tspan
                    class="cls-17"
                    x="1078.84"
                    y="0"
                >G</tspan><tspan class="cls-9" x="1117.3" y="0">Y</tspan></text>
            <g>
                <path
                    class="cls-7"
                    d="m48.44,170.94c-2.04,0-3.29-1.02-3.76-3.06L.24,6.82c-.16-.31-.24-.71-.24-1.18,0-1.88,1.09-2.82,3.29-2.82h23.04c2.04,0,3.29,1.02,3.76,3.06l19.52,78.06c3.45,13.48,7.21,31.2,11.29,53.14h.71c3.76-17.71,8.54-36.76,14.34-57.14L96.17,8.23c.47-2.03,1.72-3.06,3.76-3.06h23.04c2.04,0,3.29,1.02,3.76,3.06l20.46,71.72c5.17,18.19,9.87,37.23,14.11,57.14h.71c3.13-17.87,6.9-35.58,11.29-53.14L192.81,5.88c.47-2.04,1.65-3.06,3.53-3.06h23.28c1.25,0,2.15.39,2.7,1.18.55.79.67,1.73.35,2.82l-44.44,161.07c-.47,2.04-1.73,3.06-3.76,3.06h-24.69c-2.04,0-3.29-1.02-3.76-3.06l-21.87-74.07c-5.02-16.77-9.09-34.33-12.23-52.67h-.94c-3.14,17.72-7.13,35.27-11.99,52.67l-22.1,74.07c-.47,2.04-1.73,3.06-3.76,3.06h-24.69Z"
                />
                <path
                    class="cls-7"
                    d="m371.03,108.4c0,20.54-5.8,36.56-17.4,48.08-11.6,11.52-27.83,17.28-48.67,17.28s-37.07-5.76-48.67-17.28c-11.6-11.52-17.4-27.55-17.4-48.08v-43.26c0-20.53,5.8-36.52,17.4-47.97,11.6-11.44,27.82-17.16,48.67-17.16s37.07,5.72,48.67,17.16c11.6,11.44,17.4,27.43,17.4,47.97v43.26Zm-103.22,0c0,12.54,3.13,22.1,9.41,28.69,6.27,6.58,15.52,9.87,27.75,9.87s21.47-3.29,27.75-9.87c6.27-6.58,9.41-16.14,9.41-28.69v-43.03c0-12.7-3.14-22.34-9.41-28.92-6.27-6.58-15.52-9.88-27.75-9.88s-21.48,3.29-27.75,9.88c-6.27,6.58-9.41,16.22-9.41,28.92v43.03Z"
                />
                <path
                    class="cls-7"
                    d="m407.24,170.94c-2.2,0-3.29-1.18-3.29-3.53V6.35c0-2.35,1.09-3.53,3.29-3.53h25.63c1.88,0,3.13.86,3.76,2.59l28.69,53.37c2.82,5.33,6.23,12.15,10.23,20.46,4,8.31,7.25,15.28,9.76,20.93h.94c2.51-5.64,5.76-12.62,9.76-20.93,4-8.31,7.41-15.13,10.23-20.46l28.45-53.37c.94-1.72,2.27-2.59,4-2.59h25.39c2.35,0,3.53,1.18,3.53,3.53v161.06c0,2.35-1.18,3.53-3.53,3.53h-21.4c-2.2,0-3.29-1.18-3.29-3.53v-47.26c0-18.49.62-43.11,1.88-73.83l-.71-.24c-4.7,10.19-11.76,24.69-21.16,43.5l-20.69,40.21c-.79,1.73-2.12,2.59-4,2.59h-17.87c-1.88,0-3.21-.86-4-2.59l-20.69-40.21c-9.41-18.81-16.46-33.31-21.16-43.5l-.71.24c1.25,30.72,1.88,55.34,1.88,73.83v47.26c0,2.35-1.18,3.53-3.53,3.53h-21.4Z"
                />
                <path
                    class="cls-7"
                    d="m710.09,145.08c2.35,0,3.53,1.1,3.53,3.29v19.05c0,2.35-1.18,3.53-3.53,3.53h-100.64c-2.2,0-3.29-1.18-3.29-3.53V6.35c0-2.35,1.09-3.53,3.29-3.53h97.34c2.35,0,3.53,1.18,3.53,3.53v19.05c0,2.2-1.18,3.29-3.53,3.29h-72.19v43.97h66.07c2.35,0,3.53,1.18,3.53,3.53v18.81c0,2.35-1.18,3.53-3.53,3.53h-66.07v46.56h75.48Z"
                />
                <path
                    class="cls-7"
                    d="m747.24,170.94c-2.2,0-3.29-1.18-3.29-3.53V6.35c0-2.35,1.09-3.53,3.29-3.53h23.75c1.72,0,3.13.79,4.23,2.35l45.85,79.94c11.29,20.07,19.12,34.25,23.51,42.56l.71-.24c-1.41-20.06-2.12-41.3-2.12-63.72V6.35c0-2.35,1.18-3.53,3.53-3.53h21.16c2.35,0,3.53,1.18,3.53,3.53v161.06c0,2.35-1.18,3.53-3.53,3.53h-23.75c-1.73,0-3.06-.78-4-2.35l-44.44-73.6c-9.25-14.89-17.64-30.33-25.16-46.32l-.71.24c1.41,24.3,2.12,45.85,2.12,64.66v53.84c0,2.35-1.1,3.53-3.29,3.53h-21.4Z"
                />
            </g>
            <g>
                <path
                    class="cls-5"
                    d="m988.95,167.41c0,2.35-1.1,3.53-3.29,3.53h-21.63c-2.2,0-3.29-1.18-3.29-3.53V6.35c0-2.35,1.09-3.53,3.29-3.53h21.63c2.19,0,3.29,1.18,3.29,3.53v161.06Z"
                />
                <path
                    class="cls-5"
                    d="m1030.8,170.94c-2.2,0-3.29-1.18-3.29-3.53V6.35c0-2.35,1.09-3.53,3.29-3.53h23.75c1.72,0,3.13.79,4.23,2.35l45.85,79.94c11.29,20.07,19.12,34.25,23.51,42.56l.71-.24c-1.41-20.06-2.12-41.3-2.12-63.72V6.35c0-2.35,1.18-3.53,3.53-3.53h21.16c2.35,0,3.53,1.18,3.53,3.53v161.06c0,2.35-1.18,3.53-3.53,3.53h-23.75c-1.73,0-3.06-.78-4-2.35l-44.44-73.6c-9.25-14.89-17.64-30.33-25.16-46.32l-.71.24c1.41,24.3,2.12,45.85,2.12,64.66v53.84c0,2.35-1.1,3.53-3.29,3.53h-21.4Z"
                />
            </g>
            <g class="cls-2">
                <path
                    class="cls-21"
                    d="m622.17,239.99c-12.78-3.76-24.09,9.52-30.53,21.37-48.23,88.77-60.58,192.52-62.64,293.53-.51,25.08-.47,50.42-6.07,74.87-44.76-127.98-63.17-265.1-53.75-400.35.42-6,1.12-11.95.23-17.85-18.53-4.15-41.83,48.41-48.1,61.96-40.86,88.18-61.21,185.79-58.99,282.95-31.22-95.29-39.29-198.07-23.32-297.06.98-6.09.45-14.59-5.64-15.56-2.05-.33-4.1.45-5.99,1.31-20.07,9.11-33.91,27.98-44.59,47.26-34.55,62.41-56.57,166.45-19.13,232.63,1.79,3.17,3.57,5.83,6.71,7.6,3.59-20.47-4.05-47.6-4.77-68.98-.8-23.72-.16-47.5,2.66-71.08,3.31-27.7,9.7-55.15,19.96-81.13,7.73-19.55,23.28-63.12,48.75-65.1-37.41,109.91-30.72,234.15,18.29,339.41,7.85,16.85,13.88-4.75,15.58-12.24,3.09-13.59,4.49-27.5,6.2-41.31,6.76-54.69,17.52-108.88,32.14-162.01,15.24-55.42,32.33-107.77,58.86-158.85-41.16,129.74-19.87,273.13,33.4,398.38,4.06,9.55,12.8,27.14,25.53,18.69,7.26-4.82,9.45-14.31,10.99-22.88,19.66-109.44,29.29-220.95,58.65-328.19,4.18-15.28,10.85-32.66,26.03-37.23-.16-.05-.31-.1-.47-.14Zm-258.96,352.01s-.02-.04-.04-.06c.34-.04.29.07.04.06Zm0-1.48c0,.39.12.97-.13,1.29-.22-.4-.06-1.12-.15-1.48-.09-1.28-.11-2.58-.11-3.85,0-.07,0-.14,0-.22.03.3.06.6.09.9.11,1.1.24,2.24.31,3.35Z"
                />
                <path
                    class="cls-4"
                    d="m642.85,484.29c-64.88,11.21-133.97,4.88-200.7-11.67-36.14-8.96-71.74-20.88-106.73-34.55-13.66-5.34-27.41-10.36-41.01-15.87-16.27-6.58-40.57-13.48-52.45-27.3,8.54-4.84,19.02-5.96,29.19-7.03,106.9-11.23,214.73-27.4,307.68-73.25,20.98-10.35-10.1-23.63-21.27-28.02-55.17-21.67-112.79-35.62-170.4-41.53-28.81-2.96-57.61-3.91-86.11-2.81-14.25.55-28.42,1.6-42.48,3.18-4.51.51-10.22-.31-14.36,1.37-1.27.51-5.46,4.44-7.08,5.72-.32.26-.54.41-.61.41,73.71,2.09,147.81,9.02,221.62,20.72,29.4,4.66,58.77,10.08,87.91,17.14,14.16,3.43,27.29,7.43,39.63,15.78-96.52,36.83-205.26,42.8-307.17,66.92-11.68,2.76-23.58,5.91-32.81,12.92-2.54,1.93-4.95,4.31-5.56,7.48-1.29,6.73,5.7,12.9,11.92,17.13,33.11,22.49,68.72,41.22,105.72,55.61,51.82,20.15,106.16,31.72,160.22,36.5,52.68,4.65,106.87,2.54,152-18.95-80.28,53.64-181.3,75.91-282.88,81.33-59.87,3.19-123.03.31-179.59-26.55-3.18-1.51-6.29-1.85-9.04-.37,1.55,2.36,3.75,3.36,6.28,5,1.56,1,3.12,2.03,4.62,3.09,1.92,1.3,3.84,2.6,5.76,3.89,41.51,26.68,89.48,38.45,136.8,40.98,43.81,2.34,86.85-3.15,128.79-11.23,36.7-7.07,73-16.2,106.21-31.31,33.21-15.11,63.38-36.47,84.44-65.16-9.45-3.1-19.23-1.16-28.55.45Z"
                />
                <path
                    class="cls-19"
                    d="m663.23,309.23c-16.83,2.65-31.18,29.76-43.51,40.51-16.41,14.3-33.94,27.27-52.14,39.19-37.29,24.43-77.29,44.42-117.84,62.81-30.68,13.91-61.9,27.07-94.65,34.94-32.75,7.87-67.3,10.29-100.11,2.66-15.1-3.51-30.1-9.37-41.35-20.04,12.13-4.51,25.47-3.72,38.41-3.54,73.77,1.02,146.71-20.19,212.64-53.3,46.98-23.59,92.1-54.44,120.82-98.48,8.41-12.89,15.44-27.28,16.22-42.65.33-6.58-.67-13.62-4.93-18.65-4.6-5.41-12.24-7.46-19.32-6.92-7.08.53-13.78,3.29-20.31,6.1-81.12,34.84-156.74,81.95-239.24,113.38-20.08,7.65-40.52,14.34-61.05,20.69-7.32,2.26-15.34,2.55-22.48,5.39-12.67,5.03-6.7,10.82,5.37,9.17,118.49-16.22,225.58-77.79,325.31-143.81,4.37-2.89,8.85-5.85,13.97-6.98,5.11-1.13,11.07-.05,14.35,4.03,3.04,3.77,3.16,9.1,2.48,13.9-2.24,15.95-11.38,30.07-21.51,42.59-31.46,38.87-74.1,67.37-119.03,89.32-58.41,28.53-121.75,46.93-186.35,54.11-17.14,1.91-34.84,3.16-50.32,10.77-1.86.91-3.77,2.01-4.75,3.83-2.22,4.12,1.45,8.91,5.1,11.83,9.19,7.36,20.06,12.39,31.22,16.16,33.97,11.49,71.01,11.74,106.31,5.38,35.29-6.36,69.12-19.09,102.11-33.15,40.09-17.09,79.49-36.36,115.07-61.54,18.49-13.09,35.9-27.79,51.47-44.27,12.75-13.5,34.59-34.53,38.05-53.43Z"
                />
                <path
                    class="cls-20"
                    d="m645.2,392.97s-.04-.01-.06-.02c-1.41-.42-2.91.09-4.31.53-10.85,3.43-22.49,3.11-33.86,2.5-62.39-3.34-124-14.29-185.75-23.24-31.43-4.56-62.96-8.63-94.65-10.9-15.77-1.13-31.57-1.81-47.38-1.88-14.62-.06-31.96,3.49-46.1,1.11,14.32-10.84,39.44-11.91,56.63-16.04,20.03-4.81,40.2-9.02,60.49-12.6,40.57-7.17,81.57-11.87,122.71-14.04,43.32-2.29,95.02,2.52,135.4-15.41,2.49-1.14,4.97-2.33,7.36-3.69,2.04-1.15,4.08-2.35,6.03-3.66,1.44-.98,17.8-15.16,15.49-15.81-27.56-7.79-51.88-24.01-78.19-35.33-56.88-24.48-121.1-25.29-182.77-19.71-31.52,2.85-63.16,7.33-92.94,18.03-15.18,5.46-30.41,13.02-39.96,26.01-.05.07-.1.14-.16.21,36.75-15.39,76.94-20.31,116.6-24.13,62.14-5.99,126.11-9.52,185.82,8.67,30.34,9.25,59.33,24.03,90.86,27.57-43.23,24.47-96.31,18.4-145.97,17.46-2.44-.05-4.87-.08-7.31-.1-60.89-.46-121.69,7.96-180.57,23.32-31.85,8.31-62.91,19.3-93.44,31.54-29.89,11.98-61.09,22.12-89.71,37.06,9.83,3.3,20.53.77,30.67-1.37,58.33-12.31,118.76-10.67,178.05-4.39,59.28,6.28,118.02,17.13,177.33,23.11,24.28,2.45,48.71,4.07,73.13,3.41,12.15-.33,24.3-1.22,36.34-2.87,7.9-1.08,25.45-1.22,31.33-7.61,2.09-2.28,1.83-6.78-1.1-7.71Z"
                />
                <path
                    class="cls-4"
                    d="m533.43,553.95c33.56-20.21,79.11-126.1,67.55-213.59-11.56-87.5,85.74,4.29,68.71,79.51-17.02,75.22-108.14,158.6-108.14,158.6l-28.12-24.52Z"
                />
                <path
                    class="cls-22"
                    d="m366.72,581.22c-14.33-7.87-139.01-114.52-104.07-240.75,34.94-126.23-52.74-56-65.46-39.88-12.72,16.13-66.51,108.06-58.76,145.59,7.75,37.53,127.85,155.54,140.83,162.15,12.99,6.61,87.45-27.11,87.45-27.11Z"
                />
                <g>
                    <path
                        class="cls-7"
                        d="m622.97,239.89c-10.54,3.17-16.97,12.53-21.32,23.07-.62-3.76-1.94-7.33-4.33-10.25,6.53-8.77,15.43-15.84,25.19-12.96.15.04.31.09.46.14Z"
                    />
                    <path
                        class="cls-7"
                        d="m596.52,262.51c-1.39-.7-2.76-1.41-4.15-2.11.85-1.53,1.79-3.07,2.79-4.59.95,2.05,1.33,4.35,1.36,6.7Z"
                    />
                    <path
                        class="cls-7"
                        d="m595.6,270.87c-1.97,9.54-6.32,18.4-11.74,26.65-1.17.16-2.33.3-3.49.43-.8-.62-1.66-1.23-2.55-1.83-.57-.79-1.14-1.57-1.73-2.34,3.73-8.62,7.75-17.12,12.09-25.51,2.46.88,4.94,1.75,7.41,2.58Z"
                    />
                    <path
                        class="cls-7"
                        d="m588.64,309.69c-.19.76-.37,1.53-.55,2.29-.17-.32-.35-.63-.53-.94.27-.43.53-.85.79-1.28.1-.03.19-.05.29-.07Z"
                    />
                    <path
                        class="cls-7"
                        d="m545.2,564.56c-2.19,13.61-4.47,27.2-6.91,40.75-1.55,8.57-3.73,18.06-11,22.87-12.73,8.45-21.46-9.14-25.53-18.69-4.35-10.24-8.49-20.6-12.4-31.06,5.54-1.12,11.06-2.29,16.56-3.53,5.25,18.36,11.04,36.57,17.34,54.61,4.52-19.72,5.36-40.03,5.79-60.3,5.42-1.46,10.81-3,16.15-4.64Z"
                    />
                    <path
                        class="cls-7"
                        d="m469.96,223.13c-1.7-.15-3.39-.28-5.09-.39,1.11-3.88,2.28-7.76,3.5-11.63-1.99,3.81-3.91,7.63-5.78,11.47-3.89-.25-7.79-.45-11.71-.59,6.29-7.37,12.82-12.04,18.86-10.69.59,3.92.48,7.85.21,11.83Z"
                    />
                    <path
                        class="cls-8"
                        d="m331.36,361.94v.33c-3.99.75-7.97,1.51-11.95,2.29,2.51-.97,5.03-1.95,7.53-2.94,1.48.11,2.95.22,4.42.33Z"
                    />
                    <path
                        class="cls-8"
                        d="m580.37,297.95c-.39.05-.77.09-1.16.13-.46-.66-.93-1.31-1.4-1.96.9.6,1.76,1.21,2.55,1.83Z"
                    />
                    <path
                        class="cls-8"
                        d="m370.56,575.83c-1.33,5.11-3.77,12.68-6.98,15.15,0-.24-.03-.5-.03-.71-.08-1.11-.2-2.25-.32-3.35-.03-.3-.05-.6-.08-.9v.21c0,1.27.02,2.57.11,3.85.07.26,0,.71.05,1.1-.37.25-.74.43-1.13.51-.55,0-1.1-.02-1.65-.05-1.49-.5-3.08-2.24-4.77-5.74,6.88-2.93,11.29-4.93,11.29-4.93-2.63-1.45-9.01-6.25-17.45-13.9,6.8,3.36,13.79,6.29,20.96,8.76Z"
                    />
                    <path
                        class="cls-3"
                        d="m349.57,567.05c-.53-.24-1.05-.5-1.57-.76.25,0,.5,0,.74,0,.28.25.56.51.83.76Z"
                    />
                    <path
                        class="cls-8"
                        d="m505.93,574.9c-5.5,1.24-11.02,2.42-16.56,3.53-.27-.72-.54-1.43-.8-2.15,1.68-.56,3.34-1.15,5.01-1.77,3.73-1.38,7.38-2.87,10.97-4.47.46,1.62.91,3.23,1.38,4.85Z"
                    />
                    <path
                        class="cls-8"
                        d="m545.33,563.78c-.05.26-.09.52-.13.78-5.34,1.64-10.73,3.18-16.15,4.64.09-4.17.16-8.35.24-12.51,1.51-.98,2.99-1.98,4.47-2.98l11.57,10.08Z"
                    />
                    <path
                        class="cls-3"
                        d="m538.89,550.04c-1.73,1.43-3.44,2.65-5.12,3.66,1.74-1.2,3.44-2.42,5.12-3.66Z"
                    />
                    <path
                        class="cls-8"
                        d="m588.35,309.76c-.26.43-.52.85-.79,1.28-.18-.31-.37-.62-.56-.93.45-.12.9-.23,1.35-.35Z"
                    />
                    <path
                        class="cls-8"
                        d="m598.48,271.85c-.55,1.77-1.06,3.53-1.54,5.27-1.75,6.38-3.42,12.77-5.03,19.18-2.67.47-5.36.88-8.05,1.23,5.42-8.25,9.77-17.11,11.74-26.65.96.34,1.92.66,2.88.98Z"
                    />
                    <path
                        class="cls-8"
                        d="m601.65,262.96c-.25.59-.49,1.18-.71,1.77-1.48-.73-2.94-1.47-4.42-2.22-.03-2.35-.41-4.65-1.36-6.7.68-1.05,1.41-2.09,2.16-3.1,2.39,2.91,3.71,6.49,4.33,10.25Z"
                    />
                    <path
                        class="cls-8"
                        d="m469.96,223.13c-.04.74-.1,1.49-.15,2.23-1.79-.41-3.58-.78-5.38-1.12.15-.5.29-1,.44-1.5,1.7.11,3.39.24,5.09.39Z"
                    />
                    <path
                        class="cls-7"
                        d="m468.37,211.12c-1.23,3.86-2.4,7.74-3.5,11.63-.76-.06-1.52-.11-2.28-.16,1.87-3.83,3.79-7.65,5.78-11.47Z"
                    />
                    <path
                        class="cls-8"
                        d="m585.95,308.35c-.32-.54-.65-1.08-1-1.62.36-.14.72-.27,1.08-.41-.75-.51-1.5-1-2.25-1.47-.8-1.24-1.6-2.45-2.42-3.67.36-.5.71-1,1.05-1.51,3,2.79,4.63,5.76,3.54,8.67Z"
                    />
                    <path
                        class="cls-8"
                        d="m586.03,306.33c-.36.14-.72.27-1.08.41-.38-.63-.77-1.25-1.17-1.88.75.47,1.5.96,2.25,1.47Z"
                    />
                    <path
                        class="cls-8"
                        d="m582.4,299.68c-.34.51-.69,1.01-1.05,1.51-.7-1.05-1.42-2.08-2.15-3.1.39-.04.77-.08,1.16-.13.73.57,1.42,1.14,2.04,1.73Z"
                    />
                    <path
                        class="cls-8"
                        d="m583.86,297.52c-.47.72-.96,1.44-1.46,2.16-.62-.59-1.31-1.16-2.04-1.73,1.17-.13,2.33-.27,3.49-.43Z"
                    />
                    <path
                        class="cls-8"
                        d="m591.91,296.3c-1.07,4.23-2.11,8.47-3.12,12.72,0,0,0,.02,0,.02-.15.24-.29.48-.44.72-.45.12-.9.23-1.35.35-.34-.59-.69-1.18-1.06-1.76,1.09-2.91-.54-5.88-3.54-8.67.5-.72.99-1.44,1.46-2.16,2.69-.35,5.38-.76,8.05-1.23Z"
                    />
                    <path
                        class="cls-1"
                        d="m588.79,309.04c-.05.21-.1.43-.15.65-.1.02-.19.04-.29.07.15-.24.29-.48.44-.72Z"
                    />
                    <path
                        class="cls-1"
                        d="m596.52,262.51c.04,1.64-.1,3.28-.32,4.87-.17,1.18-.37,2.35-.61,3.49-2.47-.84-4.95-1.71-7.41-2.58,1.24-2.4,2.5-4.79,3.8-7.17.13-.24.26-.47.39-.71,1.39.7,2.76,1.41,4.15,2.11Z"
                    />
                    <path
                        class="cls-8"
                        d="m600.95,264.72c-.92,2.35-1.73,4.74-2.46,7.12-.97-.32-1.93-.64-2.88-.98.24-1.15.44-2.32.61-3.49.22-1.59.36-3.23.32-4.87,1.48.75,2.94,1.49,4.42,2.22Z"
                    />
                    <path
                        class="cls-8"
                        d="m548.71,542.23c-1.11,7.18-2.24,14.37-3.37,21.55l-11.57-10.08c1.68-1.01,3.39-2.24,5.12-3.66,0,0,.03-.02.04-.03,3.36-2.48,6.63-5.08,9.78-7.78Z"
                    />
                    <path
                        class="cls-8"
                        d="m367.06,580.97s-4.41,2-11.29,4.93c-.06-.12-.12-.25-.18-.38-2.95-6.35-5.76-12.76-8.4-19.24.28,0,.55,0,.82,0,.52.26,1.04.52,1.57.76,0,0,0,0,.02,0h0c8.44,7.66,14.82,12.46,17.45,13.91Z"
                    />
                    <path
                        class="cls-7"
                        d="m339.41,258.71c0,.15-.04.3-.06.44-2.95,18.31-5.09,36.75-6.4,55.24-4.5.98-8.99,2-13.47,3.06,3.29-20.04,7.93-39.86,13.92-59.28,2.01.17,4,.34,6.01.53Z"
                    />
                    <path
                        class="cls-7"
                        d="m577.81,296.13c-.7-.46-1.42-.92-2.16-1.36.14-.33.28-.66.43-.98.59.77,1.16,1.55,1.73,2.34Z"
                    />
                    <path
                        class="cls-8"
                        d="m587,310.11c-.85.21-1.71.42-2.56.62.73-.79,1.23-1.58,1.51-2.37.37.58.72,1.17,1.06,1.76Z"
                    />
                    <path
                        class="cls-8"
                        d="m579.21,298.08c-1.72.19-3.44.36-5.18.51.54-1.28,1.08-2.55,1.63-3.82.74.44,1.46.9,2.16,1.36.47.65.94,1.3,1.4,1.96Z"
                    />
                    <path
                        class="cls-8"
                        d="m583.78,304.86c-1.17-.74-2.35-1.45-3.53-2.12.38-.52.75-1.04,1.11-1.56.83,1.22,1.63,2.43,2.42,3.67Z"
                    />
                    <path
                        class="cls-8"
                        d="m581.36,301.19c-.36.52-.73,1.04-1.11,1.56-2.17-1.22-4.34-2.32-6.56-3.33.11-.27.22-.55.34-.82,1.74-.15,3.46-.32,5.18-.51.73,1.03,1.45,2.06,2.15,3.1Z"
                    />
                    <path
                        class="cls-8"
                        d="m580.25,302.74c-1.8,2.47-3.66,4.87-5.56,7.23-.2.24-.39.49-.6.73h0c-1.89.68-3.78,1.34-5.68,1.98,1.69-4.44,3.45-8.87,5.29-13.26,2.22,1.01,4.39,2.12,6.56,3.33Z"
                    />
                    <path
                        class="cls-8"
                        d="m584.95,306.74c-3.6,1.37-7.21,2.68-10.86,3.96.21-.24.4-.49.6-.73,1.9-2.36,3.76-4.76,5.56-7.23,1.19.67,2.37,1.38,3.53,2.12.4.63.79,1.25,1.17,1.88Z"
                    />
                    <path
                        class="cls-8"
                        d="m585.95,308.35c-.28.8-.78,1.59-1.51,2.37-4.07.96-8.22,1.78-12.41,2.47.7-.83,1.39-1.66,2.06-2.49h0c3.64-1.28,7.25-2.59,10.86-3.96.35.54.68,1.08,1,1.62Z"
                    />
                    <path
                        class="cls-8"
                        d="m574.08,310.7c-.67.84-1.36,1.67-2.06,2.49-1.35.22-2.69.43-4.05.62.14-.38.28-.76.43-1.14,1.9-.64,3.79-1.3,5.68-1.98Z"
                    />
                    <path
                        class="cls-8"
                        d="m572.03,313.19c-2.16,2.58-4.37,5.12-6.63,7.61.84-2.35,1.7-4.67,2.57-7,1.36-.19,2.7-.4,4.05-.62Z"
                    />
                    <path
                        class="cls-8"
                        d="m584.44,310.73c-1.14,1.25-2.85,2.47-5.26,3.65-4.57,2.26-9.18,4.44-13.82,6.56,0-.05.03-.09.04-.13,2.26-2.49,4.47-5.03,6.63-7.61,4.19-.69,8.34-1.51,12.41-2.47Z"
                    />
                    <path
                        class="cls-8"
                        d="m587.56,311.04c-.57.91-1.15,1.81-1.73,2.7-8.6,13.19-18.68,25.2-29.84,36.17,2.81-9.77,5.93-19.43,9.36-28.98,4.64-2.12,9.25-4.3,13.82-6.56,2.4-1.19,4.12-2.41,5.26-3.65.86-.2,1.72-.41,2.56-.62.19.31.38.62.56.93Z"
                    />
                    <path
                        class="cls-7"
                        d="m588.09,311.97c-5.72,24.27-10.6,48.71-14.98,73.27-1.73,1.17-3.46,2.32-5.2,3.45-1.79,1.17-3.57,2.32-5.37,3.47-5.54-.57-11.08-1.19-16.6-1.85,2.86-13.61,6.19-27.09,10.06-40.4h0c11.16-10.99,21.24-22.99,29.84-36.18.58-.9,1.16-1.8,1.73-2.7.18.31.36.62.53.94Z"
                    />
                    <path
                        class="cls-8"
                        d="m573.11,385.24c-.47,2.61-.93,5.23-1.38,7.84-3.06-.29-6.13-.6-9.19-.92,1.8-1.15,3.58-2.31,5.37-3.47,1.74-1.14,3.47-2.29,5.2-3.45Z"
                    />
                    <path
                        class="cls-8"
                        d="m562.55,392.17c-6.37,4.08-12.82,8.03-19.34,11.88.86-4.59,1.77-9.16,2.73-13.72,5.53.66,11.07,1.28,16.6,1.85Z"
                    />
                    <path
                        class="cls-8"
                        d="m571.74,393.08c-1.01,5.75-1.99,11.5-2.94,17.24h0c-.36.26-.72.51-1.09.75-8.55,0-17.1-.26-25.66-.71.38-2.12.76-4.22,1.16-6.33,6.52-3.84,12.97-7.79,19.34-11.88,3.06.32,6.13.63,9.19.92Z"
                    />
                    <path
                        class="cls-8"
                        d="m567.71,411.08c-9.33,6.36-18.92,12.33-28.7,17.98.93-6.25,1.95-12.48,3.04-18.69,8.55.45,17.1.71,25.66.71Z"
                    />
                    <path
                        class="cls-7"
                        d="m568.67,411.07c-4.3,26.02-8.19,52.13-12.04,78.25-8.04-.32-16.1-.84-24.16-1.56,1.52-19.65,3.63-39.26,6.54-58.7,9.78-5.65,19.37-11.63,28.7-17.98.32,0,.65,0,.97,0Z"
                    />
                    <path
                        class="cls-8"
                        d="m556.63,489.31c-.78,5.18-1.54,10.35-2.31,15.52-7.65-.12-15.32-.45-22.97-.96.33-5.37.7-10.75,1.12-16.12,8.06.72,16.12,1.24,24.16,1.56Z"
                    />
                    <path
                        class="cls-7"
                        d="m554.32,504.83c-1.7,11.47-3.4,22.92-5.16,34.38-6.48,1.92-13,3.7-19.58,5.38.36-13.54.94-27.13,1.77-40.71,7.65.51,15.32.84,22.97.96Z"
                    />
                    <path
                        class="cls-8"
                        d="m549.1,539.6c-.13.88-.27,1.76-.4,2.63-3.15,2.7-6.42,5.3-9.78,7.78,3.33-2.75,6.75-6.26,10.18-10.42Z"
                    />
                    <path
                        class="cls-8"
                        d="m549.16,539.21c-.02.13-.04.26-.06.39-3.43,4.16-6.85,7.66-10.18,10.42,0,0-.03.02-.04.03-1.68,1.25-3.38,2.46-5.12,3.66-1.48,1.01-2.96,2.01-4.47,2.98.01-.69.03-1.37.04-2.06.07-3.34.15-6.7.25-10.05,6.58-1.68,13.1-3.46,19.58-5.38Z"
                    />
                    <path
                        class="cls-8"
                        d="m504.55,570.05c-3.58,1.6-7.23,3.09-10.97,4.47-1.67.62-3.33,1.21-5.01,1.77-2.62-7.08-5.13-14.19-7.52-21.35,6.19-1.08,12.35-2.24,18.48-3.47,1.61,6.21,3.28,12.4,5.02,18.58Z"
                    />
                    <path
                        class="cls-7"
                        d="m499.53,551.47c-6.13,1.24-12.29,2.4-18.48,3.47-6.54-19.47-12.25-39.25-17.04-59.23,7.8,1.38,15.63,2.6,23.45,3.67,3.56,17.46,7.58,34.84,12.07,52.08Z"
                    />
                    <path
                        class="cls-8"
                        d="m487.45,499.39c-7.82-1.07-15.65-2.29-23.45-3.67-1.55-6.42-2.99-12.86-4.33-19.32,8.06,1.77,16.15,3.38,24.25,4.83,1.12,6.07,2.29,12.12,3.53,18.16Z"
                    />
                    <path
                        class="cls-7"
                        d="m483.92,481.23c-8.1-1.45-16.19-3.06-24.25-4.83-.55-2.59-1.08-5.19-1.59-7.79.3-.13.59-.25.89-.38,7.05-3,14.1-6.09,21.1-9.25,1.2,7.43,2.48,14.85,3.85,22.25Z"
                    />
                    <path
                        class="cls-8"
                        d="m480.07,458.98c-7,3.16-14.04,6.25-21.1,9.25-.3.13-.59.25-.89.38-1.25-6.39-2.4-12.77-3.45-19.19h0c7.49-3.42,14.97-6.91,22.4-10.47.94,6.69,1.95,13.36,3.03,20.03Z"
                    />
                    <path
                        class="cls-7"
                        d="m477.04,438.95c-7.43,3.56-14.91,7.04-22.4,10.46-1.65-10.02-3.04-20.06-4.18-30.12,4.89-2.29,9.75-4.65,14.57-7.07,2.71-1.37,5.43-2.75,8.13-4.17,1.13,10.32,2.42,20.62,3.88,30.9Z"
                    />
                    <path
                        class="cls-7"
                        d="m452.08,401.01c-1.1.53-2.2,1.06-3.29,1.57-.05-.68-.11-1.36-.17-2.04,1.15.15,2.31.31,3.46.47Z"
                    />
                    <path
                        class="cls-8"
                        d="m473.15,408.05c-2.7,1.42-5.42,2.8-8.13,4.17-4.82,2.42-9.68,4.78-14.57,7.07-.64-5.57-1.19-11.15-1.67-16.71,1.1-.51,2.2-1.04,3.29-1.57,6.87.94,13.73,1.85,20.61,2.71.15,1.45.31,2.89.47,4.33Z"
                    />
                    <path
                        class="cls-8"
                        d="m472.69,403.72c-6.88-.87-13.74-1.78-20.61-2.71,1.2-.57,2.39-1.15,3.58-1.73,5.3-2.59,10.57-5.27,15.79-8.04.39,4.16.8,8.32,1.24,12.48Z"
                    />
                    <path
                        class="cls-8"
                        d="m471.45,391.24c-5.22,2.77-10.49,5.45-15.79,8.04-1.19.58-2.39,1.16-3.58,1.73-1.16-.16-2.32-.32-3.46-.47-.65-8.07-1.14-16.16-1.44-24.23,7.75,1.18,15.52,2.35,23.28,3.52.3,3.8.63,7.6.99,11.41Z"
                    />
                    <path
                        class="cls-7"
                        d="m470.46,379.83c-7.76-1.17-15.53-2.34-23.28-3.52-.21-5.33-.33-10.65-.37-15.98,7.34-1.73,14.65-3.54,21.91-5.47.48,8.33,1.05,16.66,1.74,24.97Z"
                    />
                    <path
                        class="cls-8"
                        d="m468.72,354.86c-7.26,1.93-14.57,3.74-21.91,5.47-.06-6,0-12,.14-18,7.02-1.27,14.01-2.58,20.99-3.95.22,5.5.48,11,.79,16.49Z"
                    />
                    <path
                        class="cls-7"
                        d="m467.34,318.49c-.95.05-1.89.1-2.83.17.94-.53,1.88-1.05,2.8-1.58l.03,1.41Z"
                    />
                    <path
                        class="cls-7"
                        d="m467.94,338.38c-6.98,1.37-13.97,2.68-20.99,3.95.12-4.8.31-9.59.56-14.38,5.69-3.04,11.35-6.14,16.98-9.29h0c.95-.07,1.89-.12,2.83-.17.13,6.64.33,13.26.6,19.89Z"
                    />
                    <path
                        class="cls-8"
                        d="m464.49,318.66c-5.64,3.15-11.3,6.25-16.98,9.29.14-2.71.31-5.43.5-8.14,5.5-.43,10.99-.82,16.49-1.15Z"
                    />
                    <path
                        class="cls-8"
                        d="m467.31,317.08c-.93.53-1.87,1.05-2.8,1.58h0c-5.5.33-10.99.72-16.49,1.15.36-5.28.81-10.56,1.36-15.82h0c3.57-1.84,7.13-3.65,10.71-5.48,2.36-.07,4.7-.13,7.06-.17,0,6.25.06,12.49.18,18.74Z"
                    />
                    <path
                        class="cls-8"
                        d="m460.07,298.51c-3.57,1.83-7.13,3.64-10.71,5.47.16-1.71.34-3.39.54-5.09,3.38-.16,6.78-.28,10.17-.38Z"
                    />
                    <path
                        class="cls-8"
                        d="m467.15,294.9c-.02,1.15-.02,2.3-.02,3.44-2.36.04-4.7.1-7.06.17,2.36-1.21,4.72-2.41,7.08-3.61Z"
                    />
                    <path
                        class="cls-7"
                        d="m467.41,274.85c-.16,6.69-.25,13.36-.26,20.05-2.36,1.21-4.72,2.4-7.08,3.61-3.39.1-6.79.22-10.17.38.98-8.78,2.2-17.53,3.67-26.25,1.64.25,3.27.51,4.91.77,2.97.47,5.95.95,8.92,1.45Z"
                    />
                    <path
                        class="cls-8"
                        d="m467.94,258.33c-.23,5.51-.41,11.02-.53,16.53-2.97-.5-5.95-.98-8.92-1.45-1.64-.26-3.27-.52-4.91-.77.94-5.63,2-11.24,3.15-16.82,3.74.81,7.47,1.65,11.21,2.51Z"
                    />
                    <path
                        class="cls-7"
                        d="m468.81,240.46c-.36,5.95-.65,11.9-.88,17.86-3.73-.87-7.46-1.71-11.21-2.51,1.08-5.26,2.26-10.5,3.54-15.72,2.85.1,5.7.22,8.54.37Z"
                    />
                    <path
                        class="cls-8"
                        d="m469.81,225.36c-.1,1.27-.2,2.53-.29,3.8-.26,3.77-.5,7.53-.71,11.31-2.84-.15-5.69-.27-8.54-.37,1.29-5.31,2.67-10.59,4.16-15.86,1.8.34,3.59.71,5.38,1.12Z"
                    />
                    <path
                        class="cls-8"
                        d="m462.01,223.79c-2.62,5.37-5.15,10.75-7.58,16.15-5.28-.12-10.56-.15-15.85-.09,3.78-6.45,7.92-12.69,12.18-17.7,3.77.43,7.52.98,11.25,1.65Z"
                    />
                    <path
                        class="cls-7"
                        d="m454.42,239.94c-2.12,4.69-4.16,9.4-6.16,14.12-5.29-1.07-10.59-2.07-15.9-2.99,1.92-3.67,4-7.48,6.21-11.22,5.29-.06,10.57-.03,15.85.09Z"
                    />
                    <path
                        class="cls-8"
                        d="m448.27,254.06c-2.33,5.56-4.59,11.14-6.78,16.74-5.85-.87-11.7-1.71-17.54-2.51,2.13-4.58,5.02-10.7,8.42-17.22,5.31.93,10.61,1.93,15.9,2.99Z"
                    />
                    <path
                        class="cls-7"
                        d="m441.49,270.8c-3.77,9.67-7.32,19.42-10.69,29.24-7.21.53-14.42,1.18-21.6,1.95,3.91-9.68,8.06-19.26,12.45-28.73.61-1.32,1.38-3,2.3-4.97,5.85.81,11.7,1.65,17.54,2.51Z"
                    />
                    <path
                        class="cls-8"
                        d="m430.8,300.04c-1.85,5.35-3.63,10.72-5.36,16.12h0c-4.78,2.42-9.57,4.83-14.37,7.21-3.52.41-7.04.83-10.55,1.28,2.74-7.6,5.64-15.17,8.67-22.66,7.18-.77,14.39-1.42,21.6-1.95Z"
                    />
                    <path
                        class="cls-7"
                        d="m411.08,323.37c-4.07,2.04-8.15,4.05-12.24,6.05.56-1.59,1.13-3.18,1.7-4.77,3.51-.45,7.03-.87,10.55-1.28Z"
                    />
                    <path
                        class="cls-8"
                        d="m425.44,316.17c-.64,1.95-1.26,3.9-1.88,5.86-4.17.42-8.33.87-12.49,1.35,4.8-2.39,9.59-4.79,14.37-7.2Z"
                    />
                    <path
                        class="cls-8"
                        d="m423.57,322.02c-2.26,7.12-4.43,14.29-6.55,21.5-4.35,2.13-8.72,4.2-13.1,6.24-4.17.69-8.33,1.39-12.5,2.09,2.33-7.52,4.8-15,7.41-22.43,4.09-2,8.17-4.01,12.24-6.05,4.16-.48,8.32-.93,12.49-1.35Z"
                    />
                    <path
                        class="cls-8"
                        d="m403.92,349.76c-4.58,2.14-9.18,4.22-13.79,6.26.42-1.4.85-2.78,1.29-4.17,4.17-.7,8.33-1.4,12.5-2.09Z"
                    />
                    <path
                        class="cls-7"
                        d="m417.02,343.53c-.42,1.42-.84,2.82-1.25,4.24-3.95.67-7.9,1.33-11.86,2,4.38-2.04,8.75-4.11,13.1-6.24Z"
                    />
                    <path
                        class="cls-8"
                        d="m415.78,347.77c-1.97,6.76-3.88,13.55-5.77,20.4-2.73.54-5.47,1.05-8.21,1.56-5.03-.7-10.06-1.36-15.09-2.01,1.1-3.91,2.25-7.81,3.42-11.7,4.61-2.04,9.21-4.12,13.79-6.26,3.95-.67,7.9-1.33,11.86-2Z"
                    />
                    <path
                        class="cls-7"
                        d="m410.01,368.17c-.17.6-.33,1.2-.5,1.8-.07.26-.14.53-.22.79-2.49-.35-4.99-.7-7.49-1.03,2.74-.51,5.48-1.02,8.21-1.56Z"
                    />
                    <path
                        class="cls-8"
                        d="m401.79,369.72c-5.47,1.01-10.96,1.98-16.46,2.91.44-1.64.9-3.28,1.37-4.92,5.03.65,10.06,1.31,15.09,2.01Z"
                    />
                    <path
                        class="cls-8"
                        d="m409.29,370.75c-2.13,7.75-4.16,15.52-6.13,23.31-7.51-1.08-15.03-2.15-22.54-3.17,1.48-6.11,3.05-12.19,4.72-18.25,5.5-.94,10.99-1.91,16.46-2.91,2.5.33,5,.68,7.49,1.03Z"
                    />
                    <path
                        class="cls-7"
                        d="m403.16,394.06c-2.52,10.05-4.92,20.14-7.17,30.25-7.93,2.81-15.92,5.44-23.97,7.89,2.4-13.86,5.28-27.64,8.6-41.31,7.51,1.03,15.03,2.1,22.54,3.17Z"
                    />
                    <path
                        class="cls-8"
                        d="m395.99,424.31c-1.36,6.1-2.66,12.21-3.92,18.33-7.56,2.51-15.18,4.85-22.84,6.99.85-5.82,1.78-11.63,2.79-17.42,8.05-2.45,16.04-5.08,23.97-7.89Z"
                    />
                    <path
                        class="cls-7"
                        d="m392.07,442.64c-.99,4.79-1.95,9.58-2.86,14.38-6.72-2.18-13.4-4.45-20.07-6.8.03-.2.06-.4.09-.6,7.66-2.14,15.28-4.47,22.84-6.99Z"
                    />
                    <path
                        class="cls-8"
                        d="m389.2,457.02c-1.23,6.39-2.39,12.79-3.52,19.2-6.39-2.09-12.74-4.29-19.06-6.63.74-6.47,1.58-12.92,2.51-19.37,6.67,2.35,13.35,4.62,20.07,6.8Z"
                    />
                    <path
                        class="cls-7"
                        d="m385.68,476.22c-.08.51-.17,1.02-.26,1.53-6.71,2.26-13.46,4.33-20.28,6.2.44-4.79.93-9.57,1.48-14.35,6.32,2.33,12.67,4.54,19.06,6.63Z"
                    />
                    <path
                        class="cls-8"
                        d="m385.42,477.75c-1.04,5.96-2.02,11.92-2.95,17.9-6.16,1.63-12.34,3.09-18.59,4.37.36-5.37.78-10.73,1.27-16.08,6.82-1.87,13.57-3.94,20.28-6.2Z"
                    />
                    <path
                        class="cls-8"
                        d="m372.7,565.91c-.46,2.46-.96,4.93-1.52,7.37-.17.73-.37,1.6-.62,2.54-7.17-2.47-14.16-5.4-20.96-8.76h0s0-.02-.02-.02c-.27-.25-.55-.51-.83-.76,8.01.03,16.01-.11,23.95-.38Z"
                    />
                    <path
                        class="cls-7"
                        d="m382.47,495.65c-1.9,12.07-3.59,24.19-5.09,36.32-1.4,11.33-2.59,22.72-4.68,33.94-7.94.27-15.94.41-23.95.38-.81-.75-1.64-1.51-2.48-2.31-7.71-19.18-14.08-38.89-19.09-58.95,6.9-.45,13.78-1.19,20.61-2.19,4.17,17.99,9.14,35.8,14.89,53.36-.43-18.74-.02-37.49,1.21-56.19,6.25-1.28,12.43-2.74,18.59-4.37Z"
                    />
                    <path
                        class="cls-8"
                        d="m347.78,502.85c-6.83,1-13.71,1.74-20.61,2.19-1.08-4.3-2.09-8.62-3.03-12.95,6.89-.81,13.75-1.93,20.55-3.28.98,4.69,2.01,9.38,3.09,14.05Z"
                    />
                    <path
                        class="cls-7"
                        d="m344.68,488.8c-6.8,1.36-13.66,2.47-20.55,3.28-2.28-10.39-4.19-20.86-5.76-31.37,6.1-.95,12.17-2.04,18.23-3.26.85.38,1.7.75,2.54,1.11,1.59,10.13,3.43,20.21,5.53,30.25Z"
                    />
                    <path
                        class="cls-1"
                        d="m339.16,458.56c-.85-.36-1.7-.73-2.54-1.11.77-.15,1.54-.3,2.3-.47.08.53.16,1.06.25,1.58Z"
                    />
                    <path
                        class="cls-8"
                        d="m336.61,457.45c-6.06,1.23-12.13,2.32-18.23,3.26-.61-4.17-1.17-8.35-1.68-12.54,6.58,3.24,13.21,6.34,19.91,9.28Z"
                    />
                    <path
                        class="cls-8"
                        d="m338.91,456.98c-.76.17-1.53.32-2.3.47-6.7-2.94-13.33-6.04-19.91-9.28-.08-.69-.16-1.37-.24-2.05.78-.15,1.55-.31,2.32-.47,1.39-.28,2.78-.56,4.17-.86.43-.09.86-.18,1.29-.27,1.27-.27,2.52-.54,3.79-.83,2.9-.63,5.81-1.29,8.69-1.97.66,5.09,1.38,10.18,2.18,15.25Z"
                    />
                    <path
                        class="cls-8"
                        d="m336.73,441.73c-2.88.68-5.79,1.34-8.69,1.97-1.27.29-2.52.56-3.79.83-.43.09-.86.18-1.29.27-1.39.3-2.78.58-4.17.86-.78.16-1.55.32-2.32.47-.63-5.43-1.16-10.87-1.6-16.31,6.97,2.65,13.94,5.29,20.9,8,.16.06.33.13.49.19.15,1.24.31,2.48.48,3.72Z"
                    />
                    <path
                        class="cls-7"
                        d="m336.25,438.01c-.16-.06-.33-.13-.49-.19-6.96-2.71-13.93-5.35-20.9-8-1.22-15.12-1.7-30.3-1.43-45.46,1.22-.36,2.44-.72,3.66-1.1h0c3.8.36,7.59.75,11.4,1.15,1.12.12,2.24.24,3.35.36.72,17.8,2.18,35.58,4.39,53.25Z"
                    />
                    <path
                        class="cls-8"
                        d="m317.1,383.25c-1.22.38-2.44.74-3.66,1.1,0-.48.02-.96.03-1.44,1.22.11,2.42.23,3.63.34Z"
                    />
                    <path
                        class="cls-8"
                        d="m321.5,381.92c-1.46.46-2.92.91-4.39,1.34h0c-1.21-.11-2.41-.23-3.63-.34h0c2.68-.33,5.36-.66,8.03-1Z"
                    />
                    <path
                        class="cls-8"
                        d="m331.86,384.76c-1.12-.12-2.24-.24-3.35-.36-3.8-.4-7.59-.79-11.4-1.15,1.47-.43,2.93-.88,4.39-1.34h.02c3.4-.42,6.81-.86,10.2-1.3.04,1.39.09,2.76.14,4.14Z"
                    />
                    <path
                        class="cls-8"
                        d="m331.72,380.62c-3.39.44-6.8.88-10.2,1.3,3.38-1.06,6.77-2.15,10.13-3.26.02.66.04,1.32.07,1.97Z"
                    />
                    <path
                        class="cls-8"
                        d="m331.65,378.65c-3.36,1.12-6.75,2.21-10.13,3.26h-.02c-2.67.34-5.35.67-8.03.99.11-5.45.32-10.9.63-16.35,1.39-.52,2.77-1.04,4.15-1.57.38-.14.75-.29,1.13-.44h.03c3.98-.78,7.96-1.54,11.95-2.29.02,5.47.12,10.93.29,16.39Z"
                    />
                    <path
                        class="cls-8"
                        d="m331.36,361.94c-1.47-.11-2.94-.22-4.42-.33,1.48-.58,2.94-1.17,4.41-1.77,0,.7,0,1.4,0,2.1Z"
                    />
                    <path
                        class="cls-8"
                        d="m319.38,364.55c-.38.15-.75.3-1.13.44-1.38.53-2.76,1.05-4.15,1.57,0-.32.03-.64.05-.97,1.74-.35,3.48-.69,5.23-1.04Z"
                    />
                    <path
                        class="cls-8"
                        d="m326.94,361.61c-2.5,1-5.02,1.98-7.53,2.94h-.03c-1.75.35-3.49.69-5.23,1.04.09-1.59.19-3.18.3-4.77,4.16.23,8.31.49,12.46.79h.03Z"
                    />
                    <path
                        class="cls-7"
                        d="m331.79,335.69c-.3,8.04-.45,16.1-.44,24.15-1.47.6-2.93,1.19-4.41,1.77h-.03c-4.15-.3-8.3-.56-12.46-.79.5-7.34,1.18-14.68,2.03-21.99,5.1-1.09,10.2-2.14,15.32-3.13Z"
                    />
                    <path
                        class="cls-8"
                        d="m332.95,314.39c-.51,7.09-.9,14.2-1.16,21.31-5.12,1-10.22,2.05-15.32,3.13.84-7.15,1.84-14.27,3-21.37,4.48-1.07,8.97-2.09,13.47-3.06Z"
                    />
                    <path
                        class="cls-7"
                        d="m339.41,258.71c-2.01-.19-4-.36-6.01-.53,1.15-3.72,2.34-7.42,3.59-11.11.41-.05.82-.09,1.23-.14,1.7,3.14,1.77,7.89,1.19,11.78Z"
                    />
                </g>
            </g>
        </g>
    </g>
</svg>
