<?xml version="1.0" encoding="UTF-8"?>
<svg id="Layer_2" data-name="Layer 2" xmlns="http://www.w3.org/2000/svg" viewBox="0 0 1646.58 285.45">
  <defs>
    <style>
      .cls-1 {
        fill: #ec1c24;
      }

      .cls-2 {
        fill: currentColor;
      }
    </style>
  </defs>
  <g id="Layer_1-2" data-name="Layer 1">
    <g>
      <g>
        <path class="cls-2" d="m451.5,285.45c-14.12,0-25.94-4.75-35.44-14.26-9.42-9.5-14.12-21.36-14.12-35.57s4.71-26.02,14.12-35.44c9.41-9.59,21.23-14.39,35.44-14.39,11.86,0,21.87,3.53,30.05,10.58,2.88,2.48,3.05,6.88.32,9.53l-4.13,4c-6.84-8.26-15.59-12.39-26.25-12.39s-19.41,3.55-26.51,10.66c-7.02,7.02-10.53,16.17-10.53,27.45s3.51,20.43,10.53,27.45c7.1,7.11,15.94,10.66,26.51,10.66,11.1,0,20.74-4.66,28.91-13.99l8.93,8.66c-4.53,5.42-10.08,9.62-16.65,12.59-6.57,2.97-13.64,4.46-21.18,4.46Z"/>
        <path class="cls-2" d="m507.81,283.32h-8.96c-1.51,0-2.55-1.51-2.02-2.91l34.35-91.09c.32-.84,1.12-1.39,2.02-1.39h10.88c.9,0,1.7.56,2.02,1.39l34.35,91.09c.53,1.41-.51,2.91-2.02,2.91h-8.95c-.91,0-1.72-.57-2.03-1.43l-8.17-22.98c-.31-.86-1.12-1.43-2.03-1.43h-37.07c-.91,0-1.72.57-2.03,1.42l-8.3,23c-.31.85-1.12,1.42-2.03,1.42Zm30.56-80.34l-14.54,40.15c-.51,1.4.53,2.89,2.03,2.89h25.57c1.49,0,2.53-1.48,2.03-2.89l-14.54-40.15h-.53Z"/>
        <path class="cls-2" d="m602.76,283.32h-7.8c-1.23,0-2.23-1-2.23-2.23v-90.94c0-1.23,1-2.23,2.23-2.23h8.74c.8,0,1.54.43,1.93,1.12l32.53,56.97h.53l32.53-56.97c.4-.69,1.13-1.12,1.93-1.12h8.74c1.23,0,2.23,1,2.23,2.23v90.94c0,1.23-1,2.23-2.23,2.23h-7.8c-1.23,0-2.23-1-2.23-2.23v-54.4l.53-15.99h-.53l-29.2,51.24c-.4.7-1.14,1.12-1.94,1.12h-4.61c-.8,0-1.54-.43-1.94-1.12l-29.2-51.24h-.53l.53,15.99v54.4c0,1.23-1,2.23-2.23,2.23Z"/>
        <path class="cls-2" d="m715.56,246.05v35.89c0,.76-.62,1.37-1.37,1.37h-9.51c-.76,0-1.37-.62-1.37-1.37v-92.65c0-.76.62-1.37,1.37-1.37h31.13c8.26,0,15.28,2.75,21.05,8.26,5.86,5.51,8.79,12.21,8.79,20.12s-2.93,14.83-8.79,20.25c-5.69,5.42-12.7,8.13-21.05,8.13h-18.88c-.76,0-1.37.62-1.37,1.37Zm0-45.03v30.56c0,.76.62,1.37,1.37,1.37h19.14c4.88,0,8.93-1.64,12.12-4.93,3.28-3.28,4.93-7.19,4.93-11.72s-1.64-8.3-4.93-11.59c-3.2-3.37-7.24-5.06-12.12-5.06h-19.14c-.76,0-1.37.62-1.37,1.37Z"/>
        <path class="cls-2" d="m811.62,285.45c-10.57,0-19.1-3.46-25.58-10.39-6.48-6.84-9.73-15.9-9.73-27.18v-58.27c0-.93.75-1.69,1.69-1.69h8.88c.93,0,1.69.75,1.69,1.69v58.8c0,7.82,2.04,13.99,6.13,18.52,4.08,4.53,9.73,6.79,16.92,6.79s12.83-2.27,16.92-6.79c4.08-4.53,6.13-10.7,6.13-18.52v-58.8c0-.93.75-1.69,1.69-1.69h8.88c.93,0,1.69.75,1.69,1.69v58.27c0,11.55-3.2,20.7-9.59,27.45-6.39,6.75-14.97,10.13-25.71,10.13Z"/>
        <path class="cls-2" d="m922.87,257.87c0,8.35-3.06,15.06-9.19,20.12-6.22,4.98-13.77,7.46-22.65,7.46-7.91,0-14.88-2.31-20.92-6.93-5.5-4.2-9.45-9.81-11.86-16.81-.4-1.17.17-2.45,1.31-2.92l7.44-3.04c1.22-.5,2.6.13,3.05,1.38.7,1.94,1.56,3.74,2.59,5.41,1.42,2.31,3.09,4.29,5,5.93,1.91,1.64,4.02,2.93,6.33,3.86,2.31.93,4.75,1.4,7.33,1.4,5.6,0,10.17-1.44,13.72-4.33,3.55-2.89,5.33-6.73,5.33-11.52,0-4-1.47-7.42-4.4-10.26-2.75-2.75-7.91-5.42-15.45-7.99-7.64-2.75-12.39-4.62-14.26-5.6-10.13-5.15-15.19-12.74-15.19-22.78,0-7.02,2.8-13.01,8.39-17.99,5.68-4.97,12.66-7.46,20.92-7.46,7.28,0,13.59,1.87,18.92,5.6,4.61,3.15,7.89,7,9.84,11.55.5,1.18-.07,2.54-1.25,3.04l-7.17,3c-1.14.48-2.49,0-2.99-1.13-1.19-2.65-3.04-4.92-5.56-6.8-3.15-2.35-6.99-3.53-11.52-3.53-4.8,0-8.84,1.33-12.12,4-3.29,2.49-4.93,5.73-4.93,9.73,0,3.29,1.29,6.13,3.86,8.53,2.84,2.4,9.01,5.24,18.52,8.53,9.68,3.29,16.59,7.31,20.72,12.06,4.13,4.75,6.2,10.59,6.2,17.52Z"/>
        <path class="cls-2" d="m1009.21,285.45c-14.12,0-25.94-4.75-35.44-14.26-9.42-9.5-14.12-21.36-14.12-35.57s4.71-26.02,14.12-35.44c9.41-9.59,21.23-14.39,35.44-14.39,13.2,0,24.12,4.37,32.76,13.12,1.31,1.32,1.24,3.47-.09,4.77l-3.91,3.79c-1.35,1.31-3.49,1.24-4.81-.11-6.47-6.56-14.45-9.85-23.95-9.85-10.57,0-19.41,3.55-26.51,10.66-7.02,7.02-10.53,16.17-10.53,27.45s3.51,20.43,10.53,27.45c7.1,7.11,15.94,10.66,26.51,10.66s18.94-3.84,26.6-11.52c1.32-1.32,3.44-1.37,4.78-.07l4.12,4c1.32,1.28,1.4,3.41.12,4.74-4.09,4.24-8.9,7.61-14.43,10.12-6.57,2.97-13.64,4.46-21.18,4.46Z"/>
        <path class="cls-2" d="m1112.36,283.32h-48.3c-1.45,0-2.63-1.18-2.63-2.63v-90.13c0-1.45,1.18-2.63,2.63-2.63h6.99c1.45,0,2.63,1.18,2.63,2.63v78.41c0,1.45,1.18,2.63,2.63,2.63h36.04c1.45,0,2.63,1.18,2.63,2.63v6.46c0,1.45-1.18,2.63-2.63,2.63Z"/>
        <path class="cls-2" d="m1159.62,285.45c-10.57,0-19.1-3.46-25.58-10.39-6.48-6.84-9.73-15.9-9.73-27.18v-58.03c0-1.06.86-1.92,1.92-1.92h8.41c1.06,0,1.92.86,1.92,1.92v58.56c0,7.82,2.04,13.99,6.13,18.52,4.08,4.53,9.73,6.79,16.92,6.79s12.83-2.27,16.92-6.79c4.08-4.53,6.13-10.7,6.13-18.52v-58.56c0-1.06.86-1.92,1.92-1.92h8.41c1.06,0,1.92.86,1.92,1.92v58.03c0,11.55-3.2,20.7-9.59,27.45-6.39,6.75-14.97,10.13-25.71,10.13Z"/>
        <path class="cls-2" d="m1211.98,281.15v-91.05c0-1.2.97-2.17,2.17-2.17h32.34c7.55,0,14.03,2.49,19.45,7.46,5.42,4.89,8.13,11.06,8.13,18.52,0,9.42-4.31,16.03-12.92,19.85v.53c4.88,1.6,8.79,4.38,11.72,8.33,2.93,3.95,4.4,8.46,4.4,13.52,0,7.82-2.84,14.3-8.53,19.45-5.51,5.15-12.3,7.73-20.38,7.73h-34.2c-1.2,0-2.17-.97-2.17-2.17Zm12.26-79.33v24.84c0,1.2.97,2.17,2.17,2.17h20.08c4.35,0,7.99-1.47,10.92-4.4,2.93-3.02,4.4-6.44,4.4-10.26s-1.42-7.1-4.26-10.13c-2.84-2.93-6.35-4.4-10.53-4.4h-20.61c-1.2,0-2.17.97-2.17,2.17Zm0,40.64v26.97c0,1.2.97,2.17,2.17,2.17h22.48c4.44,0,8.21-1.55,11.32-4.66,3.02-3.11,4.53-6.8,4.53-11.06s-1.56-7.82-4.66-10.92c-3.11-3.11-7.02-4.66-11.72-4.66h-21.94c-1.2,0-2.17.97-2.17,2.17Z"/>
        <path class="cls-2" d="m1411.17,235.62c0,14.12-4.71,25.94-14.12,35.44-9.51,9.59-21.14,14.39-34.91,14.39s-25.49-4.8-34.91-14.39c-9.42-9.5-14.12-21.32-14.12-35.44s4.71-25.93,14.12-35.44c9.41-9.59,21.05-14.39,34.91-14.39s25.49,4.84,34.91,14.52c9.41,9.51,14.12,21.27,14.12,35.31Zm-85.54,0c0,11.01,3.46,20.12,10.39,27.31,7.02,7.19,15.72,10.79,26.11,10.79s19.05-3.6,25.98-10.79c7.02-7.11,10.53-16.21,10.53-27.31s-3.51-20.21-10.53-27.31c-6.93-7.19-15.59-10.79-25.98-10.79s-19.1,3.6-26.11,10.79c-6.93,7.19-10.39,16.3-10.39,27.31Z"/>
        <path class="cls-2" d="m1437.95,243.98v37.78c0,.86-.7,1.56-1.56,1.56h-9.14c-.86,0-1.56-.7-1.56-1.56v-92.27c0-.86.7-1.56,1.56-1.56h52.57c.86,0,1.56.7,1.56,1.56v8.6c0,.86-.7,1.56-1.56,1.56h-40.31c-.86,0-1.56.7-1.56,1.56v28.19c0,.86.7,1.56,1.56,1.56h36.05c.86,0,1.56.7,1.56,1.56v8.34c0,.86-.7,1.56-1.56,1.56h-36.05c-.86,0-1.56.7-1.56,1.56Z"/>
        <path class="cls-2" d="m1535.5,283.32h-9.66c-.72,0-1.3-.58-1.3-1.3v-92.8c0-.72.58-1.3,1.3-1.3h9.66c.72,0,1.3.58,1.3,1.3v92.8c0,.72-.58,1.3-1.3,1.3Z"/>
        <path class="cls-2" d="m1567.27,283.32h-10.31c-.54,0-.97-.44-.97-.97v-93.45c0-.54.44-.97.97-.97h10.31c.54,0,.97.44.97.97v93.45c0,.54-.44.97-.97.97Z"/>
        <path class="cls-2" d="m1619.94,201.78v79.4c0,1.18-.96,2.14-2.14,2.14h-7.98c-1.18,0-2.14-.96-2.14-2.14v-79.4c0-1.18-.96-2.14-2.14-2.14h-22.37c-1.18,0-2.14-.96-2.14-2.14v-7.45c0-1.18.96-2.14,2.14-2.14h61.28c1.18,0,2.14.96,2.14,2.14v7.45c0,1.18-.96,2.14-2.14,2.14h-22.37c-1.18,0-2.14.96-2.14,2.14Z"/>
      </g>
      <g>
        <path class="cls-2" d="m545.24,4.86v148.17c0,.58-.47,1.06-1.06,1.06h-23.87c-.58,0-1.06-.47-1.06-1.06v-86.18c0-.94-1.13-1.41-1.8-.75h0s-24.78,24.35-24.78,24.35l-.72.72-17.84,17.53c-.41.4-1.07.4-1.48,0l-17.78-17.49-.78-.76-24.78-24.35h0c-.67-.66-1.8-.19-1.8.75v86.18c0,.58-.47,1.06-1.06,1.06h-23.87c-.58,0-1.06-.47-1.06-1.06V4.87c0-.94,1.13-1.41,1.8-.75l24.19,23.77.31.31,44.83,44.06.75.74.74-.74,44.83-44.06.31-.31,24.21-23.78c.67-.66,1.8-.18,1.8.75Z"/>
        <path class="cls-2" d="m639.27,27.05c-27.89.03-50.49,22.63-50.52,50.52h0c.04,27.88,22.62,50.48,50.51,50.53,27.88-.04,50.49-22.63,50.52-50.53-.04-27.88-22.63-50.48-50.52-50.52Zm.02,99.97c-27.3-.03-49.44-22.16-49.46-49.46.03-27.3,22.16-49.43,49.46-49.45,27.3.03,49.43,22.16,49.45,49.45-.03,27.3-22.15,49.44-49.45,49.46Zm-.02-99.97c-27.89.03-50.49,22.63-50.52,50.52h0c.04,27.88,22.62,50.48,50.51,50.53,27.88-.04,50.49-22.63,50.52-50.53-.04-27.88-22.63-50.48-50.52-50.52Zm.02,99.97c-27.3-.03-49.44-22.16-49.46-49.46.03-27.3,22.16-49.43,49.46-49.45,27.3.03,49.43,22.16,49.45,49.45-.03,27.3-22.15,49.44-49.45,49.46Zm54.84-104.3C679.62,8.12,659.86-.05,639.29,0c-20.59-.05-40.34,8.12-54.86,22.72-14.59,14.52-22.77,34.27-22.71,54.85-.06,20.59,8.12,40.34,22.71,54.85,14.52,14.6,34.27,22.78,54.86,22.72,20.58.06,40.33-8.12,54.84-22.72,14.6-14.51,22.78-34.26,22.72-54.85.06-20.58-8.12-40.33-22.72-54.85Zm-.75,108.97c-14.32,14.39-33.8,22.46-54.09,22.4-20.31.06-39.79-8.01-54.12-22.4-14.39-14.32-22.47-33.81-22.4-54.12-.06-20.3,8.01-39.78,22.4-54.09h.02c14.32-14.39,33.8-22.46,54.1-22.4,20.3-.05,39.78,8.01,54.09,22.4,14.39,14.32,22.47,33.8,22.4,54.1.06,20.3-8.01,39.78-22.4,54.1Zm-54.11-104.64c-27.89.03-50.49,22.63-50.52,50.52h0c.04,27.88,22.62,50.48,50.51,50.53,27.88-.04,50.49-22.63,50.52-50.53-.04-27.88-22.63-50.48-50.52-50.52Zm.02,99.97c-27.3-.03-49.44-22.16-49.46-49.46.03-27.3,22.16-49.43,49.46-49.45,27.3.03,49.43,22.16,49.45,49.45-.03,27.3-22.15,49.44-49.45,49.46Z"/>
        <path class="cls-2" d="m693.38,23.48c-14.32-14.39-33.8-22.46-54.09-22.4-20.31-.06-39.78,8-54.1,22.4h-.02c-14.39,14.32-22.47,33.8-22.4,54.09-.06,20.31,8.01,39.79,22.4,54.12,14.32,14.39,33.8,22.47,54.12,22.4,20.3.05,39.78-8.01,54.09-22.4,14.39-14.32,22.47-33.8,22.4-54.1.06-20.31-8.01-39.78-22.4-54.1Zm-54.11,104.61c-27.88-.04-50.47-22.64-50.51-50.53h0c.03-27.88,22.62-50.49,50.52-50.52,27.88.04,50.48,22.63,50.52,50.52-.03,27.89-22.63,50.49-50.52,50.53Z"/>
        <path class="cls-2" d="m834.06,129.1v23.92c0,.59-.48,1.06-1.06,1.06h-112.56c-.81,0-1.32-.87-.93-1.58l68.89-123.82h0c.39-.71-.12-1.58-.93-1.58h-68.34c-.59,0-1.06-.48-1.06-1.06V2.13c0-.59.48-1.06,1.06-1.06h112.55c.81,0,1.32.87.93,1.58l-68.87,123.81h0c-.39.71.12,1.58.93,1.58h68.34c.59,0,1.06.48,1.06,1.06Z"/>
        <rect class="cls-2" x="849.92" y="1.06" width="25.99" height="152.97" rx="1.05" ry="1.05"/>
        <path class="cls-2" d="m1016.22,129.14v23.89c0,.58-.47,1.05-1.05,1.05h-113.9c-.58,0-1.05-.47-1.05-1.05V2.11c0-.58.47-1.05,1.05-1.05h23.89c.58,0,1.05.47,1.05,1.05v124.93c0,.58.47,1.05,1.05,1.05h87.92c.58,0,1.05.47,1.05,1.05Z"/>
        <path class="cls-2" d="m1145.83,129.16v23.85c0,.59-.48,1.07-1.07,1.07h-113.85c-.59,0-1.07-.48-1.07-1.07V2.13c0-.59.48-1.07,1.07-1.07h23.84c.59,0,1.07.48,1.07,1.07v124.89c0,.59.48,1.07,1.07,1.07h87.87c.59,0,1.07.48,1.07,1.07Z"/>
        <path class="cls-2" d="m1260,141.64l-10.44-27.44-.25-.67-28.14-73.96-.14-.37-12.92-33.94c-.35-.91-1.63-.91-1.97,0l-12.9,33.91-.15.38-43.02,113.06c-.26.69.25,1.43.99,1.43h25.54c.44,0,.83-.27.99-.68l4.76-12.48.25-.69h49.07l.25.69,4.75,12.48c.16.41.55.68.99.68h25.54c.74,0,1.25-.74.99-1.43l-4.17-10.97Zm-38.77-28.86h0c.26.69-.25,1.43-.99,1.43h-26.23c-.74,0-1.25-.74-.99-1.43h0s13.11-34.45,13.11-34.45h0c.35-.92,1.63-.92,1.97-.01h0"/>
      </g>
      <g>
        <path class="cls-1" d="m327.29,6.67l-76.94,271.42c-.64,2.26-2.7,3.81-5.04,3.81h-41.17c-3.48,0-5.99-3.33-5.04-6.67L276.03,3.81c.64-2.26,2.7-3.81,5.04-3.81h41.17c3.48,0,5.99,3.33,5.04,6.67Z"/>
        <path class="cls-1" d="m220.17,5.47l-77.47,273.31c-.52,1.85-2.21,3.13-4.14,3.13h-43.13c-2.85,0-4.92-2.73-4.14-5.47L168.58,3.8c.64-2.25,2.69-3.8,5.03-3.8h42.43c2.85,0,4.92,2.73,4.14,5.47Z"/>
        <rect class="cls-1" y="215.51" width="55.32" height="66.4" rx="5.33" ry="5.33"/>
      </g>
    </g>
  </g>
</svg>